<?xml version="1.0" standalone="no"?>
<!DOCTYPE svg PUBLIC "-//W3C//DTD SVG 1.1//EN" "http://www.w3.org/Graphics/SVG/1.1/DTD/svg11.dtd" >
<svg xmlns="http://www.w3.org/2000/svg">
<metadata></metadata>
<defs>
<font id="futura_md_btbold_italic" horiz-adv-x="1251" >
<font-face units-per-em="2048" ascent="1556" descent="-492" />
<missing-glyph horiz-adv-x="627" />
<glyph horiz-adv-x="0" />
<glyph unicode="&#xd;" horiz-adv-x="627" />
<glyph unicode=" "  horiz-adv-x="627" />
<glyph unicode="&#x09;" horiz-adv-x="627" />
<glyph unicode="&#xa0;" horiz-adv-x="627" />
<glyph unicode="!" horiz-adv-x="735" d="M80 166q0 82 59.5 141.5t143.5 59.5q85 0 143.5 -58t58.5 -143q0 -86 -59 -144.5t-143 -58.5t-143.5 60t-59.5 143zM141 485l160 1012h373l-160 -1012h-373z" />
<glyph unicode="&#x22;" horiz-adv-x="713" d="M76 877v561h219v-561h-219zM416 877v561h223v-561h-223z" />
<glyph unicode="#" horiz-adv-x="1575" d="M23 381l86 231h270l82 230h-283l86 231h279l141 393h250l-139 -393h235l141 393h250l-139 -393h270l-86 -231h-268l-80 -230h277l-84 -231h-275l-141 -393h-250l139 393h-235l-141 -393h-250l139 393h-274zM625 610h245l82 232h-245z" />
<glyph unicode="$" d="M0 227l178 254q91 -100 192 -151t208 -51q93 0 146.5 38t53.5 105q0 53 -38 89.5t-173 90.5q-198 80 -283 168t-85 209q0 202 135.5 331.5t361.5 141.5l23 133h125l-23 -137q92 -8 180 -46.5t175 -109.5l-177 -256q-78 72 -152.5 106t-156.5 34q-83 0 -131.5 -33 t-48.5 -88q0 -64 173 -140q71 -31 112 -51q186 -91 251.5 -176.5t65.5 -220.5q0 -192 -147 -324.5t-383 -148.5l-41 -238h-125l40 238q-130 9 -245 67.5t-211 165.5z" />
<glyph unicode="%" horiz-adv-x="1681" d="M63 1032q0 201 109.5 325t284.5 124q140 0 223.5 -85t83.5 -229q0 -192 -110 -318t-277 -126q-146 0 -230 82.5t-84 226.5zM295 -39l905 1518h189l-910 -1518h-184zM311 1001q0 -60 17 -87t55 -27q58 0 100.5 96.5t42.5 230.5q0 64 -16 90.5t-53 26.5q-60 0 -103 -96 t-43 -234zM915 262q0 202 109.5 328.5t284.5 126.5q140 0 222.5 -84t82.5 -227q0 -194 -111.5 -320.5t-281.5 -126.5q-138 0 -222 83.5t-84 219.5zM1155 240q0 -61 17 -88t55 -27q58 0 100.5 96.5t42.5 231.5q0 63 -16 90.5t-54 27.5q-59 0 -102 -96.5t-43 -234.5z" />
<glyph unicode="&#x26;" horiz-adv-x="1575" d="M53 399q0 142 91 243t309 198q-42 65 -62 131.5t-20 134.5q0 158 121.5 262.5t308.5 104.5t301.5 -98.5t114.5 -258.5q0 -121 -73.5 -209t-260.5 -182l180 -215l86 63q19 15 56.5 56.5t82.5 97.5l211 -225q-58 -65 -120 -119.5t-128 -97.5l240 -285h-393l-99 115 q-113 -78 -227.5 -116t-234.5 -38q-218 0 -351 121t-133 317zM412 418q0 -73 47.5 -117.5t126.5 -44.5q49 0 105.5 19.5t123.5 60.5l-233 276q-87 -34 -128.5 -81.5t-41.5 -112.5zM664 1100q0 -24 5 -46.5t15 -39.5l51 -94l92 55q50 29 75.5 67t25.5 84q0 47 -34.5 78 t-86.5 31q-62 0 -102.5 -38.5t-40.5 -96.5z" />
<glyph unicode="'" horiz-adv-x="371" d="M76 877v561h219v-561h-219z" />
<glyph unicode="(" horiz-adv-x="735" d="M74 336q0 350 131 648t387 529l194 -180q-208 -189 -317 -445t-109 -560q0 -178 40.5 -338.5t123.5 -313.5l-233 -114q-109 192 -163 384t-54 390z" />
<glyph unicode=")" horiz-adv-x="735" d="M-102 -258q209 190 317.5 449t108.5 573q0 170 -40 327t-122 308l233 114q109 -190 162 -382t53 -392q0 -351 -130.5 -649t-385.5 -528z" />
<glyph unicode="*" horiz-adv-x="948" d="M141 1075l256 51l-219 142l135 153l168 -194l15 258l200 -39l-82 -246l230 119l67 -195l-254 -49l217 -141l-133 -154l-172 197l-14 -260l-199 39l82 245l-229 -118z" />
<glyph unicode="+" horiz-adv-x="1706" d="M254 496v231h481v494h238v-494h479v-231h-479v-496h-238v496h-481z" />
<glyph unicode="," horiz-adv-x="627" d="M-242 -291l363 613h426l-481 -613h-308z" />
<glyph unicode="-" horiz-adv-x="934" d="M68 348l49 309h678l-50 -309h-677z" />
<glyph unicode="." horiz-adv-x="627" d="M37 166q0 83 58.5 142t142.5 59q85 0 143.5 -58t58.5 -143q0 -86 -58 -144.5t-142 -58.5t-143.5 60t-59.5 143z" />
<glyph unicode="/" horiz-adv-x="995" d="M0 -190l782 1687h213l-782 -1687h-213z" />
<glyph unicode="0" d="M66 532q0 186 48.5 364.5t135.5 309.5q87 133 209 203t266 70q214 0 335.5 -153t121.5 -425q0 -187 -47.5 -360t-133.5 -303q-92 -139 -211 -208t-266 -69q-215 0 -336.5 151.5t-121.5 419.5zM432 440q0 -82 29 -126t84 -44q52 0 95 46t77 139q45 124 72.5 271.5 t27.5 268.5q0 86 -29.5 130t-87.5 44q-52 0 -93.5 -45t-78.5 -141q-43 -117 -69.5 -267t-26.5 -276z" />
<glyph unicode="1" d="M319 1141l89 309h550l-229 -1450h-373l183 1141h-220z" />
<glyph unicode="2" d="M4 0l610 698q108 125 149.5 198t41.5 132q0 68 -42.5 109t-113.5 41q-88 0 -138.5 -61.5t-52.5 -170.5h-345q18 252 164.5 392.5t390.5 140.5q226 0 364.5 -122.5t138.5 -318.5q0 -137 -71.5 -263.5t-243.5 -287.5l-192 -178q52 4 93 6t56 2h311l-51 -317h-1069z" />
<glyph unicode="3" d="M62 473h341q7 -105 57 -162t136 -57q77 0 126.5 49t49.5 125q0 84 -57 132t-158 48h-16l41 258q10 -2 22.5 -3t36.5 -1q93 0 145 47.5t52 130.5q0 70 -46.5 113t-119.5 43q-65 0 -108 -38t-58 -109h-326q25 198 168.5 314t366.5 116q206 0 332.5 -106t126.5 -277 q0 -132 -81 -224.5t-229 -132.5q122 -29 188 -111t66 -206q0 -205 -144 -332t-378 -127q-249 0 -391 136t-143 374z" />
<glyph unicode="4" d="M-2 332l45 280l664 838h426l-134 -838h191l-43 -280h-193l-51 -332h-330l52 332h-627zM330 612h340l84 451q7 44 32 142l5 16q-23 -41 -51.5 -83t-59.5 -81z" />
<glyph unicode="5" d="M-8 125l123 309q109 -88 203 -129t186 -41q120 0 188 68t68 188q0 112 -81 176t-224 64q-66 0 -134 -14t-137 -41l195 745h786l-59 -303h-508l-53 -207q43 9 79 13.5t68 4.5q191 0 308.5 -119.5t117.5 -314.5q0 -253 -162.5 -408t-431.5 -155q-149 0 -282 41t-250 123z " />
<glyph unicode="6" d="M59 483q0 154 83 312.5t366 482.5l156 178h436l-449 -504q23 4 46 6.5t48 2.5q186 0 299 -121.5t113 -321.5q0 -242 -156 -397.5t-399 -155.5q-249 0 -396 140.5t-147 377.5zM387 485q0 -90 65 -155.5t156 -65.5t155 64t64 157q0 94 -63 157t-156 63q-91 0 -156 -65 t-65 -155z" />
<glyph unicode="7" d="M72 0l710 1116h-618l53 334h1143l-10 -43l-865 -1407h-413z" />
<glyph unicode="8" d="M47 393q0 159 91 264t255 136q-88 48 -134 121.5t-46 166.5q0 176 131 287t342 111q208 0 339.5 -109t131.5 -278q0 -115 -64.5 -196.5t-191.5 -125.5q111 -37 170 -125.5t59 -216.5q0 -207 -158 -337t-413 -130q-226 0 -369 121t-143 311zM399 446q0 -83 49.5 -136.5 t126.5 -53.5q83 0 138 54.5t55 138.5q0 82 -51 135t-131 53q-77 0 -132 -57t-55 -134zM518 1057q0 -71 45 -114.5t117 -43.5q71 0 117.5 47t46.5 121q0 72 -47.5 120t-116.5 48q-68 0 -115 -51.5t-47 -126.5z" />
<glyph unicode="9" d="M109 928q0 242 156 397.5t399 155.5q248 0 394 -140t146 -378q0 -166 -103 -351t-343 -444l-156 -168h-414l426 494q-22 -5 -45 -7t-49 -2q-186 0 -298.5 121.5t-112.5 321.5zM438 961q0 -94 63.5 -157t155.5 -63t156 65t64 155t-64.5 155.5t-155.5 65.5t-155 -64 t-64 -157z" />
<glyph unicode=":" horiz-adv-x="735" d="M66 166q0 83 58.5 142t141.5 59q86 0 144.5 -58t58.5 -143q0 -86 -58 -144.5t-143 -58.5q-83 0 -142.5 60t-59.5 143zM172 780q0 83 58.5 142t142.5 59q85 0 143.5 -58t58.5 -143t-59 -143.5t-143 -58.5q-83 0 -142 59.5t-59 142.5z" />
<glyph unicode=";" horiz-adv-x="735" d="M-229 -291l362 613h426l-481 -613h-307zM176 780q0 83 59 142t142 59q85 0 144 -58t59 -143q0 -86 -58.5 -144t-142.5 -58q-83 0 -143 60t-60 142z" />
<glyph unicode="&#x3c;" horiz-adv-x="1706" d="M264 494v233l1178 487v-253l-854 -351l854 -348v-254z" />
<glyph unicode="=" horiz-adv-x="1706" d="M254 272v230h1198v-230h-1198zM254 719v231h1198v-231h-1198z" />
<glyph unicode="&#x3e;" horiz-adv-x="1706" d="M264 8v254l854 348l-854 351v253l1178 -487v-233z" />
<glyph unicode="?" horiz-adv-x="1155" d="M106 1065q25 202 162.5 318t352.5 116q209 0 343 -120t134 -308q0 -175 -109.5 -290t-277.5 -115h-27l-31 -195h-334l66 397q14 -1 29.5 -1.5t44.5 -0.5q145 0 220 49t75 144q0 57 -43.5 96t-108.5 39q-62 0 -105 -34.5t-55 -94.5h-336zM244 160q0 80 58.5 139t139.5 59 q85 0 141 -56.5t56 -141.5q0 -87 -55.5 -143t-141.5 -56q-88 0 -143 55t-55 144z" />
<glyph unicode="@" horiz-adv-x="2048" d="M82 520q0 169 53 320.5t156 277.5q148 183 359.5 278t467.5 95q170 0 320 -46t260 -132q136 -107 203 -243t67 -306q0 -167 -65.5 -307t-190.5 -240q-69 -56 -154 -85.5t-176 -29.5q-106 0 -161 40t-60 120q-56 -82 -126.5 -120t-168.5 -38q-163 0 -247 87.5t-84 257.5 q0 241 141.5 404t349.5 163q77 0 134 -30.5t95 -92.5l52 92h206l-153 -610q0 -2 -1 -6q-3 -18 -3 -27q0 -30 16 -44.5t47 -14.5q137 0 240.5 143.5t103.5 335.5q0 239 -179.5 390t-467.5 151q-148 0 -274 -36.5t-230 -109.5q-155 -110 -239 -274.5t-84 -356.5 q0 -302 203 -481.5t544 -179.5q164 0 316 47.5t280 138.5l97 -135q-156 -117 -329 -175t-364 -58q-192 0 -354.5 49t-288.5 145q-157 122 -234 281.5t-77 361.5zM778 444q0 -83 35 -128.5t98 -45.5q84 0 148 59t88 158l51 209q-9 76 -50 116t-110 40q-103 0 -181.5 -121.5 t-78.5 -286.5z" />
<glyph unicode="A" horiz-adv-x="1456" d="M-117 0l733 1464h490l311 -1464h-397l-59 276h-512l-140 -276h-426zM596 602h309l-67 342q-10 51 -15 91t-6 75q-21 -60 -38.5 -105.5t-27.5 -67.5z" />
<glyph unicode="B" horiz-adv-x="1280" d="M39 0l233 1464h332q191 0 273 -9t137 -32q91 -36 144.5 -119t53.5 -188q0 -145 -82.5 -239.5t-226.5 -114.5q140 -26 213.5 -111.5t73.5 -220.5q0 -112 -49.5 -207t-136.5 -149q-64 -40 -160.5 -57t-321.5 -17h-102h-381zM465 287h47q178 0 236.5 43t58.5 151 q0 80 -50 114t-169 34h-70zM561 897h33q141 0 194.5 37.5t53.5 126.5q0 64 -43.5 93.5t-139.5 29.5h-55z" />
<glyph unicode="C" horiz-adv-x="1337" d="M88 672q0 155 48.5 295.5t142.5 255.5q110 134 274.5 205t368.5 71q116 0 225 -26t213 -78l-66 -404q-84 73 -183 110.5t-206 37.5q-182 0 -300 -127t-118 -324q0 -178 99 -275.5t280 -97.5q78 0 160.5 19t173.5 57l-61 -379q-75 -24 -165.5 -36.5t-195.5 -12.5 q-313 0 -501.5 194t-188.5 515z" />
<glyph unicode="D" horiz-adv-x="1546" d="M39 0l229 1464h252q282 0 402.5 -15.5t195.5 -53.5q163 -82 248.5 -240.5t85.5 -376.5q0 -211 -76.5 -369t-232.5 -268q-110 -76 -261 -108.5t-505 -32.5h-55h-283zM483 326q41 -3 60.5 -3.5t36.5 -0.5q235 0 357 118t122 346q0 186 -89 270.5t-288 84.5h-74z" />
<glyph unicode="E" horiz-adv-x="1116" d="M41 0l231 1464h844l-53 -338h-453l-37 -239h420l-49 -318h-422l-39 -243h453l-51 -326h-844z" />
<glyph unicode="F" horiz-adv-x="1108" d="M41 0l231 1464h846l-53 -336h-455l-39 -241h426l-51 -316h-424l-90 -571h-391z" />
<glyph unicode="G" horiz-adv-x="1669" d="M88 657q0 175 63 332.5t181 276.5q112 112 265.5 171.5t332.5 59.5q210 0 367 -84t272 -258l-312 -213q-55 99 -136.5 148t-190.5 49q-184 0 -304 -133t-120 -336q0 -168 95 -269.5t251 -101.5q58 0 109.5 13.5t95.5 39.5q39 24 67 60.5t45 85.5h-333l47 299l735 -1 q-9 -391 -215 -613t-559 -222q-347 0 -551.5 189t-204.5 507z" />
<glyph unicode="H" horiz-adv-x="1612" d="M41 0l231 1464h394l-91 -565h512l89 565h395l-232 -1464h-395l94 598h-510l-94 -598h-393z" />
<glyph unicode="I" horiz-adv-x="725" d="M47 0l232 1464h399l-232 -1464h-399z" />
<glyph unicode="J" horiz-adv-x="973" d="M-104 117l192 272q49 -54 85 -76t73 -22q68 0 102.5 56.5t73.5 301.5l129 815h393l-151 -956q-2 -9 -4 -26q-45 -291 -148 -398q-65 -67 -152.5 -101t-193.5 -34q-130 0 -229.5 42t-169.5 126z" />
<glyph unicode="K" horiz-adv-x="1450" d="M41 0l231 1464h392l-99 -612l557 612h506l-721 -723l498 -741h-463l-410 645l-102 -645h-389z" />
<glyph unicode="L" horiz-adv-x="1049" d="M41 0l231 1464h394l-177 -1114h484l-55 -350h-877z" />
<glyph unicode="M" horiz-adv-x="1907" d="M-45 0l448 1464h435l98 -567q9 -52 16.5 -109.5t14.5 -119.5q11 44 29.5 94.5t52.5 126.5l262 575h432l35 -1464h-361l-4 698q0 59 2 116.5t6 115.5q-22 -74 -75 -185l-15 -33l-334 -712h-237l-137 711q-11 54 -19.5 108.5t-15.5 109.5q-11 -65 -23.5 -123t-25.5 -108 l-203 -698h-381z" />
<glyph unicode="N" horiz-adv-x="1673" d="M41 0l231 1464h447l309 -723q4 -9 13 -31q51 -119 71 -208v37q0 40 4.5 88.5t13.5 117.5l113 719h391l-231 -1464h-430l-328 745q-36 81 -54.5 134t-31.5 106v-41q0 -40 -3.5 -84.5t-12.5 -118.5l-111 -741h-391z" />
<glyph unicode="O" horiz-adv-x="1763" d="M88 647q0 164 50.5 306.5t150.5 258.5q117 138 285.5 211.5t365.5 73.5q330 0 533.5 -190t203.5 -494q0 -163 -51.5 -306.5t-150.5 -258.5q-121 -141 -286 -214t-364 -73q-157 0 -285.5 43t-228.5 129q-105 92 -164 227t-59 287zM494 690q0 -169 96.5 -270t257.5 -101 q176 0 299 133.5t123 325.5q0 158 -100 259.5t-255 101.5q-179 0 -300 -129t-121 -320z" />
<glyph unicode="P" horiz-adv-x="1319" d="M41 0l233 1464h402q167 0 251 -13.5t146 -45.5q112 -57 167.5 -156t55.5 -237q0 -137 -59.5 -254t-161.5 -180q-60 -37 -142 -52.5t-257 -15.5h-60h-104l-82 -510h-389zM561 821h37q190 0 257 40t67 136q0 81 -57.5 118.5t-180.5 37.5h-70z" />
<glyph unicode="Q" horiz-adv-x="1763" d="M82 651q0 163 50.5 304t150.5 257q117 138 286 212.5t365 74.5q329 0 533 -189t204 -493q0 -194 -70 -357.5t-206 -285.5l243 -326h-405l-125 164q-72 -23 -150.5 -35t-162.5 -12q-319 0 -516 190.5t-197 495.5zM487 684q0 -171 95 -274t252 -103q9 0 30 3t29 3l-227 289 h417l93 -131q50 62 76 140t26 165q0 160 -101 262.5t-257 102.5q-185 0 -309 -131.5t-124 -325.5z" />
<glyph unicode="R" horiz-adv-x="1356" d="M41 0l231 1464h390q176 0 262 -12.5t149 -42.5q111 -52 168 -146.5t57 -226.5q0 -182 -108.5 -304.5t-298.5 -153.5l356 -578h-446l-283 559l-88 -559h-389zM555 795h123q116 0 178 53t62 153q0 94 -58 136.5t-186 42.5h-58z" />
<glyph unicode="S" horiz-adv-x="1176" d="M-31 211l203 293q92 -99 175.5 -144t172.5 -45q74 0 118 36t44 95q0 80 -178 173q-17 9 -27 14q-173 90 -237 173t-64 202q0 217 146.5 355t377.5 138q122 0 234.5 -43t212.5 -127l-168 -289q-79 68 -144 101t-120 33q-60 0 -100 -34.5t-40 -84.5q0 -62 150 -139 q53 -27 82 -44q154 -85 214 -173.5t60 -221.5q0 -235 -163 -375.5t-443 -140.5q-147 0 -275 62.5t-231 185.5z" />
<glyph unicode="T" horiz-adv-x="1118" d="M94 1124l56 340h1034l-56 -340h-313l-178 -1124h-393l178 1124h-328z" />
<glyph unicode="U" horiz-adv-x="1530" d="M106 416q0 62 12 166t36 258l100 624h393l-117 -735q-14 -84 -19 -131.5t-5 -83.5q0 -94 53 -146.5t148 -52.5q226 0 321 602l2 14l84 533h393l-131 -831v-1q-43 -270 -108 -382q-82 -143 -231.5 -218t-352.5 -75q-262 0 -420 125.5t-158 333.5z" />
<glyph unicode="V" horiz-adv-x="1389" d="M20 1464h416l180 -837q7 -32 12 -72.5t9 -93.5q19 55 36.5 99.5t28.5 70.5l388 833h436l-776 -1464h-340z" />
<glyph unicode="W" horiz-adv-x="2048" d="M55 1464h389l113 -790q10 -71 14.5 -123.5t6.5 -99.5q18 72 35 131.5t30 99.5l260 782h361l106 -790q10 -69 14 -122t7 -101q8 41 23.5 91.5t47.5 139.5l295 782h406l-613 -1464h-401l-100 681q-10 69 -15 122.5t-6 101.5q-17 -66 -33.5 -124.5t-31.5 -106.5l-222 -674 h-417z" />
<glyph unicode="X" horiz-adv-x="1534" d="M-106 0l649 791l-391 673h444l154 -288q14 -27 27.5 -55.5t25.5 -57.5q13 28 30.5 56t40.5 59l218 286h479l-565 -696l456 -768h-458l-211 391q-13 23 -26.5 52t-27.5 61q-19 -39 -36 -67t-33 -50l-291 -387h-485z" />
<glyph unicode="Y" horiz-adv-x="1194" d="M-41 1464h436l160 -374q13 -29 26.5 -65.5t26.5 -77.5q27 63 43.5 97.5t26.5 49.5l260 370h451l-625 -815l-102 -649h-394l103 653z" />
<glyph unicode="Z" horiz-adv-x="1331" d="M-113 0l842 1143h-563l45 321h1208l-823 -1116h647l-53 -348h-1303z" />
<glyph unicode="[" horiz-adv-x="735" d="M-25 -422l306 1919h536l-37 -242h-237l-230 -1435h238l-37 -242h-539z" />
<glyph unicode="\" horiz-adv-x="995" d="M156 1497h213l467 -1687h-213z" />
<glyph unicode="]" horiz-adv-x="735" d="M-143 -422l37 242h237l227 1435h-237l39 242h538l-305 -1919h-536z" />
<glyph unicode="^" horiz-adv-x="2048" d="M414 899l465 563h288l465 -563h-264l-344 342l-346 -342h-264z" />
<glyph unicode="_" horiz-adv-x="1024" d="M0 -244h1024v-239h-1024v239z" />
<glyph unicode="`" horiz-adv-x="1024" d="M328 1505h266l154 -352h-142z" />
<glyph unicode="a" horiz-adv-x="1366" d="M47 434q0 262 151 435t377 173q105 0 188 -43.5t150 -134.5l23 146h338l-160 -1010h-332l17 135q-73 -85 -162.5 -128.5t-192.5 -43.5q-174 0 -285.5 131t-111.5 340zM406 469q0 -97 59 -156t156 -59q106 0 176.5 82.5t70.5 206.5q0 94 -59 152.5t-154 58.5 q-108 0 -178.5 -81t-70.5 -204z" />
<glyph unicode="b" horiz-adv-x="1366" d="M18 0l246 1550h346l-84 -528q-4 -31 -14 -67.5t-27 -84.5q86 85 176 126.5t185 41.5q175 0 287 -131t112 -338q0 -262 -150.5 -435t-377.5 -173q-100 0 -183 43t-161 135l-23 -139h-332zM424 471q0 -94 59 -152.5t154 -58.5q109 0 179.5 80t70.5 203q0 97 -59.5 156 t-155.5 59q-107 0 -177.5 -81.5t-70.5 -205.5z" />
<glyph unicode="c" horiz-adv-x="1024" d="M41 461q0 261 164 423.5t430 162.5q85 0 162 -24.5t141 -72.5l-49 -309q-55 59 -111.5 88t-118.5 29q-105 0 -176 -81.5t-71 -201.5q0 -100 55 -158.5t149 -58.5q60 0 115.5 21t110.5 63l-54 -332q-71 -25 -137.5 -37t-130.5 -12q-214 0 -346.5 138.5t-132.5 361.5z" />
<glyph unicode="d" horiz-adv-x="1366" d="M47 430q0 262 150.5 434t377.5 172q102 0 184.5 -42.5t155.5 -133.5v29q0 30 3 62.5t8 66.5l84 532h350l-244 -1550h-336l21 131q-75 -85 -164.5 -128.5t-192.5 -43.5q-174 0 -285.5 131.5t-111.5 339.5zM414 475q0 -97 59 -156t156 -59q106 0 177 82.5t71 206.5 q0 94 -59.5 152.5t-153.5 58.5q-109 0 -179.5 -80.5t-70.5 -204.5z" />
<glyph unicode="e" horiz-adv-x="1223" d="M31 459q0 259 162.5 421t420.5 162q234 0 376.5 -143t142.5 -379q0 -21 -6 -76q-2 -17 -3 -24h-757v-23q0 -96 49 -146t143 -50q66 0 124.5 27.5t125.5 88.5l192 -194q-86 -82 -198.5 -123t-251.5 -41q-247 0 -383.5 131.5t-136.5 368.5zM391 625h408q-5 82 -55 130 t-132 48q-74 0 -132.5 -47t-88.5 -131z" />
<glyph unicode="f" horiz-adv-x="758" d="M8 752l41 258h168l16 102q3 13 7 39q31 205 90 279q55 69 141.5 107t190.5 38q48 0 100.5 -10.5t109.5 -32.5l-45 -289q-29 14 -57.5 21.5t-52.5 7.5q-59 0 -88.5 -37t-44.5 -135l-15 -90h222l-41 -258h-220l-118 -752h-355l119 752h-168z" />
<glyph unicode="g" horiz-adv-x="1352" d="M-16 -74h372q7 -61 49 -94t115 -33q112 0 176 65.5t82 198.5l13 87q-68 -83 -153.5 -124.5t-188.5 -41.5q-178 0 -290 128t-112 334q0 257 151 426.5t377 169.5q103 0 186 -42.5t152 -131.5l23 142h334l-121 -772q-4 -24 -10 -66q-47 -319 -129 -418 q-82 -97 -210.5 -148.5t-289.5 -51.5q-233 0 -366.5 94.5t-159.5 277.5zM406 469q0 -97 57.5 -157t150.5 -60q109 0 181.5 83t72.5 208q0 95 -58.5 153t-154.5 58q-108 0 -178.5 -81t-70.5 -204z" />
<glyph unicode="h" horiz-adv-x="1290" d="M10 0l248 1550h350l-90 -544q-6 -40 -13.5 -78.5t-17.5 -75.5q83 100 165 145t179 45q157 0 243.5 -84.5t86.5 -236.5q0 -52 -18 -173q-1 -11 -2 -18l-84 -530h-357l84 535q4 23 6.5 45t2.5 38q0 66 -35 100t-103 34q-93 0 -145.5 -67t-75.5 -214l-72 -471h-352z" />
<glyph unicode="i" horiz-adv-x="639" d="M27 0l159 1010h359l-160 -1010h-358zM213 1311q0 78 55.5 134t134.5 56q83 0 138 -54t55 -136q0 -81 -56 -137t-137 -56q-79 0 -134.5 56.5t-55.5 136.5z" />
<glyph unicode="j" horiz-adv-x="639" d="M-47 -446l233 1456h359l-234 -1456h-358zM213 1311q0 78 55.5 134t134.5 56q83 0 138 -54t55 -136q0 -81 -56 -137t-137 -56q-79 0 -134.5 56.5t-55.5 136.5z" />
<glyph unicode="k" horiz-adv-x="1233" d="M27 0l243 1550h357l-156 -968l383 428h449l-494 -492l330 -518h-426l-256 477l-76 -477h-354z" />
<glyph unicode="l" horiz-adv-x="639" d="M25 0l247 1550h359l-248 -1550h-358z" />
<glyph unicode="m" horiz-adv-x="1870" d="M10 0l160 1010h313l-22 -168q73 103 154 151.5t178 48.5q112 0 183.5 -46t119.5 -150q77 103 156.5 149.5t174.5 46.5q153 0 233.5 -84.5t80.5 -246.5q0 -42 -4 -87.5t-13 -93.5l-84 -530h-333l84 535q2 12 3 25t1 38q0 77 -33 115.5t-98 38.5q-87 0 -134.5 -65 t-70.5 -218l-70 -469h-334l84 535q1 4 2 12q7 48 7 67q0 67 -33.5 102.5t-96.5 35.5q-86 0 -132 -62t-70 -221l-74 -469h-332z" />
<glyph unicode="n" horiz-adv-x="1290" d="M10 0l160 1010h342l-25 -158q83 100 165 145t179 45q157 0 243.5 -84.5t86.5 -236.5q0 -52 -18 -173q-1 -11 -2 -18l-84 -530h-357l84 535q4 23 6.5 45t2.5 38q0 66 -35 100t-103 34q-93 0 -145.5 -67t-75.5 -214l-72 -471h-352z" />
<glyph unicode="o" horiz-adv-x="1255" d="M27 457q0 257 168 422t430 165q242 0 387 -137t145 -366q0 -254 -170 -418t-438 -164q-237 0 -379.5 136t-142.5 362zM369 453q0 -93 53 -148t141 -55q111 0 182.5 84.5t71.5 216.5q0 94 -53.5 148.5t-145.5 54.5q-104 0 -176.5 -87.5t-72.5 -213.5z" />
<glyph unicode="p" horiz-adv-x="1366" d="M-43 -446l231 1456h336l-22 -140q75 86 164 129t190 43q175 0 286 -130.5t111 -338.5q0 -262 -150.5 -435t-377.5 -173q-102 0 -184.5 43.5t-155.5 134.5q0 -48 -2.5 -88.5t-7.5 -70.5l-66 -430h-352zM424 455q0 -94 59 -151.5t154 -57.5q109 0 179.5 79.5t70.5 202.5 q0 97 -59.5 156t-155.5 59q-107 0 -177.5 -82t-70.5 -206z" />
<glyph unicode="q" horiz-adv-x="1366" d="M47 430q0 263 150.5 435.5t377.5 172.5q103 0 187 -44t153 -134l21 150h338l-232 -1456h-350l64 426q4 30 15 68.5t28 84.5q-71 -85 -161 -128.5t-194 -43.5q-174 0 -285.5 131t-111.5 338zM406 467q0 -97 59 -156t156 -59q106 0 176.5 81.5t70.5 205.5q0 94 -59 152.5 t-154 58.5q-109 0 -179 -80t-70 -203z" />
<glyph unicode="r" horiz-adv-x="854" d="M10 0l160 1010h342l-25 -172q47 96 126 146t184 50q11 0 25 -1.5t44 -6.5l-71 -317q-35 8 -63 12t-54 4q-103 0 -162.5 -64.5t-81.5 -199.5l-72 -461h-352z" />
<glyph unicode="s" horiz-adv-x="940" d="M-41 84l119 242q102 -63 171 -89t130 -26q53 0 85 23.5t32 60.5q0 57 -147 117q-44 18 -68 28q-117 52 -166 113t-49 152q0 145 121 241t311 96q96 0 187 -27t171 -79l-104 -227q-69 49 -127 71.5t-115 22.5q-48 0 -79.5 -22t-31.5 -54q0 -46 104 -86q46 -17 72 -29 q145 -63 203 -130.5t58 -168.5q0 -159 -123 -255.5t-328 -96.5q-116 0 -221.5 30.5t-204.5 92.5z" />
<glyph unicode="t" horiz-adv-x="705" d="M8 752l41 258h168l45 293h356l-47 -293h181l-41 -258h-181l-118 -752h-355l119 752h-168z" />
<glyph unicode="u" d="M55 336q0 40 7 100.5t28 186.5l62 387h354l-66 -418q-12 -83 -19 -138.5t-7 -72.5q0 -72 34.5 -110t100.5 -38q154 0 208 349q3 19 5 29l63 399h355l-72 -457l-3 -21q-53 -325 -165 -434q-71 -68 -173.5 -102.5t-231.5 -34.5q-223 0 -351.5 101t-128.5 274z" />
<glyph unicode="v" horiz-adv-x="1196" d="M-33 1010h367l141 -500q10 -34 17 -76.5t10 -88.5q27 64 47 107t33 64l276 494h389l-624 -1010h-310z" />
<glyph unicode="w" horiz-adv-x="1751" d="M-25 1010h355l102 -459q9 -37 16 -79t13 -95q22 71 68 166l6 12l221 455h243l109 -459q12 -54 19.5 -95.5t11.5 -78.5q19 64 68 166l5 12l226 455h366l-547 -1010h-274l-113 467q-8 36 -15 78.5t-13 87.5q-10 -31 -26.5 -69.5t-47.5 -102.5l-223 -461h-271z" />
<glyph unicode="x" horiz-adv-x="1128" d="M-145 0l481 528l-293 482h383l86 -164q13 -24 24 -51t21 -60q15 30 33 59t39 56l121 160h405l-399 -486l293 -524h-400l-94 186q-18 35 -29 61t-18 52q-20 -39 -37 -66.5t-35 -50.5l-139 -182h-442z" />
<glyph unicode="y" horiz-adv-x="1075" d="M-35 -446l297 497l-287 959h369l88 -436q2 -9 6 -26q19 -88 21 -150q11 39 28.5 83.5t42.5 96.5l209 432h383l-784 -1456h-373z" />
<glyph unicode="z" horiz-adv-x="1098" d="M-106 0l608 758h-416l39 252h975l-584 -723h463l-45 -287h-1040z" />
<glyph unicode="{" horiz-adv-x="1024" d="M152 410v241q6 0 18 -1t18 -1q118 0 168 55.5t50 188.5v254q0 136 24 193.5t82 89.5q48 25 120.5 37t180.5 12q12 0 38.5 -1t41.5 -1v-242q-7 0 -21 1t-20 1q-98 0 -132 -35.5t-34 -146.5v-240q0 -140 -46 -200t-165 -85q120 -24 165.5 -82.5t45.5 -199.5v-242 q0 -110 33.5 -145t130.5 -35q7 0 21.5 1t21.5 1v-242q-15 0 -42 -1t-40 -1q-108 0 -179.5 12t-119.5 37q-59 32 -82.5 88.5t-23.5 192.5v256q0 133 -49.5 187.5t-168.5 54.5q-4 0 -17 -1t-19 -1z" />
<glyph unicode="|" horiz-adv-x="1024" d="M393 -483v2048h240v-2048h-240z" />
<glyph unicode="}" horiz-adv-x="1024" d="M133 -172q9 0 23 -1t20 -1q97 0 130.5 34.5t33.5 145.5v242q0 140 46 199t165 83q-120 25 -165.5 84t-45.5 201v240q0 111 -33.5 146.5t-126.5 35.5q-7 0 -22.5 -1t-24.5 -1v242q15 0 41.5 1t38.5 1q108 0 180 -12t121 -37q58 -32 82.5 -89.5t24.5 -193.5v-254 q0 -134 49 -189t168 -55q6 0 18 1t18 1v-241q-6 0 -18 1t-18 1q-119 0 -168 -55t-49 -187v-256q0 -137 -24.5 -194.5t-82.5 -88.5q-45 -24 -113.5 -35.5t-177.5 -11.5q-14 0 -44 1t-46 1v242z" />
<glyph unicode="~" horiz-adv-x="1706" d="M178 401v254q112 73 207.5 108.5t179.5 35.5q63 0 126.5 -12t169.5 -46q16 -5 51 -17q159 -56 247 -56q84 0 173.5 36t197.5 115v-254q-101 -69 -194 -103t-183 -34q-45 0 -89 7.5t-83 21.5q-13 4 -38 13q-255 89 -382 89q-84 0 -175.5 -37.5t-207.5 -120.5z" />
<glyph unicode="&#xa0;" />
<glyph unicode="&#xa1;" horiz-adv-x="735" d="M57 -37l160 1012h375l-160 -1012h-375zM248 1296q0 86 58 143.5t143 57.5q83 0 142.5 -59t59.5 -142q0 -82 -59.5 -142t-142.5 -60q-85 0 -143 58.5t-58 143.5z" />
<glyph unicode="&#xa2;" d="M131 508q0 267 174.5 435.5t454.5 168.5h4l35 178h125l-37 -190q51 -13 97.5 -33t88.5 -49l-57 -295q-66 62 -125.5 90.5t-124.5 28.5q-131 0 -213 -89t-82 -231q0 -110 68 -172.5t188 -62.5q53 0 107.5 16.5t111.5 50.5l-63 -315q-49 -20 -97.5 -29.5t-99.5 -9.5h-14 l-45 -231h-127l47 235q-195 29 -305.5 163t-110.5 341z" />
<glyph unicode="&#xa3;" d="M47 199q44 53 96.5 92.5t114.5 64.5q45 51 66.5 108.5t21.5 125.5v26h-233l24 154h168q-39 103 -56.5 170t-17.5 113q0 184 141 305t357 121q218 0 338.5 -123t128.5 -355l-332 1q-5 92 -38.5 136t-98.5 44q-63 0 -102 -35.5t-39 -91.5q0 -22 24 -115.5t29 -169.5h297 l-25 -154h-290q-26 -83 -70.5 -147.5t-110.5 -112.5h23q79 0 181 -33.5t132 -33.5q37 0 73 20.5t81 69.5l221 -211q-92 -107 -182 -158t-189 -51q-72 0 -205.5 44t-193.5 44q-44 0 -85 -20t-85 -62z" />
<glyph unicode="&#xa4;" d="M-23 537l52 122l143 1q1 26 4.5 57.5t9.5 74.5l-168 1l52 125h139q69 264 254.5 412.5t447.5 148.5q99 0 194.5 -26.5t178.5 -76.5l-67 -329q-70 57 -145 85.5t-154 28.5q-122 0 -205.5 -60t-134.5 -183h524l-70 -125h-476q-8 -32 -11.5 -64.5t-3.5 -69.5h422l-68 -122 h-358q10 -128 87.5 -197.5t211.5 -69.5q63 0 130 20.5t156 67.5l-69 -350q-71 -24 -137 -35.5t-134 -11.5q-281 0 -440 150t-170 426h-195z" />
<glyph unicode="&#xa5;" horiz-adv-x="1358" d="M-18 532l28 179h447l-70 141h-354l28 178h236l-219 422h393l166 -389q11 -26 24 -59t33 -84q19 38 40 75t44 72l271 385h421l-323 -422h242l-29 -178h-350l-109 -141h436l-28 -179h-480l-84 -532h-358l86 532h-491z" />
<glyph unicode="&#xa6;" horiz-adv-x="1024" d="M393 -350v758h240v-758h-240zM393 674v758h240v-758h-240z" />
<glyph unicode="&#xa7;" horiz-adv-x="1229" d="M-14 0h368q3 -80 44.5 -127t109.5 -47q57 0 98 38t41 91q0 108 -186 156l-45 12q-218 58 -308 146.5t-90 238.5q0 130 78.5 225t216.5 133q-80 32 -120.5 92.5t-40.5 147.5q0 171 140 281t361 110q231 0 366.5 -118t135.5 -320v-4h-375v6q0 79 -36 121.5t-103 42.5 q-63 0 -102 -35.5t-39 -91.5q0 -100 210 -153q33 -9 50 -13q192 -50 286.5 -142t94.5 -231q0 -137 -79.5 -235.5t-223.5 -139.5q79 -42 119 -104.5t40 -142.5q0 -161 -146 -269t-372 -108q-224 0 -358.5 120t-134.5 320zM387 518q0 -80 51 -131t131 -51t130.5 51t50.5 131 q0 78 -52.5 129t-130.5 51q-75 0 -127.5 -53t-52.5 -127z" />
<glyph unicode="&#xa8;" horiz-adv-x="1024" d="M299 1339q0 57 43 99.5t100 42.5q59 0 99.5 -41t40.5 -101q0 -63 -39 -103t-101 -40q-60 0 -101.5 41.5t-41.5 101.5zM662 1339q0 57 42.5 99.5t100.5 42.5q59 0 100 -41.5t41 -100.5q0 -62 -39.5 -102.5t-101.5 -40.5q-61 0 -102 41.5t-41 101.5z" />
<glyph unicode="&#xa9;" horiz-adv-x="1706" d="M106 737q0 148 57.5 285t164.5 246q105 106 238 161.5t286 55.5q154 0 289.5 -56t242.5 -163q106 -106 160.5 -240.5t54.5 -288.5q0 -153 -54 -287t-159 -237q-109 -108 -247 -165.5t-287 -57.5q-148 0 -283.5 57t-242.5 164t-163.5 241.5t-56.5 284.5zM242 737 q0 -119 47 -230.5t135 -199.5q87 -87 198 -133.5t232 -46.5t234 47t202 135q86 84 130 193t44 235q0 125 -45 235.5t-131 196.5q-88 89 -198.5 135t-235.5 46q-126 0 -235 -45.5t-195 -133.5q-88 -89 -135 -201t-47 -233zM446 731q0 207 111 329t299 122q157 0 257 -80 t108 -211h-213q-7 67 -47.5 104t-108.5 37q-83 0 -129.5 -77t-46.5 -216q0 -140 47.5 -212t138.5 -72q67 0 106.5 40.5t45.5 114.5h215q-6 -143 -107.5 -230t-263.5 -87q-190 0 -301 117.5t-111 320.5z" />
<glyph unicode="&#xaa;" horiz-adv-x="1024" d="M35 1061q0 184 113 305t284 121q80 0 142 -30.5t112 -94.5l16 102h254l-120 -706h-248l12 94q-55 -59 -122.5 -90t-143.5 -31q-131 0 -215 92t-84 238zM305 1085q0 -67 44.5 -108t115.5 -41q80 0 133 57.5t53 145.5q0 65 -44 106t-115 41q-81 0 -134 -57t-53 -144z" />
<glyph unicode="&#xab;" horiz-adv-x="1090" d="M29 520l374 447l175 -140l-271 -317l223 -330l-194 -141zM473 520l377 447l180 -146l-276 -311l213 -338l-187 -133z" />
<glyph unicode="&#xac;" horiz-adv-x="1706" d="M254 639v227h1198v-501h-229v274h-969z" />
<glyph unicode="&#xad;" horiz-adv-x="934" d="M68 348l49 309h678l-50 -309h-677z" />
<glyph unicode="&#xae;" horiz-adv-x="1706" d="M106 737q0 151 59 290t169 247q105 104 237 157.5t281 53.5q156 0 294 -57.5t245 -167.5q101 -104 154.5 -238t53.5 -285q0 -155 -56.5 -291t-164.5 -239q-109 -105 -245 -161t-281 -56q-151 0 -287 58t-243 169q-105 108 -160.5 241.5t-55.5 278.5zM244 737 q0 -121 44 -229t130 -195q87 -90 199 -138t235 -48q121 0 232.5 45.5t199.5 130.5t134 196.5t46 237.5q0 124 -44 233.5t-128 194.5q-89 91 -200.5 138t-237.5 47q-124 0 -232 -44t-194 -128q-90 -90 -137 -203t-47 -238zM537 344v819h329q174 0 264.5 -60t90.5 -177 q0 -81 -46 -139t-128 -82l182 -361h-248l-154 326h-65v-326h-225zM762 803h80q74 0 110.5 26.5t36.5 79.5q0 59 -38 86t-122 27h-67v-219z" />
<glyph unicode="&#xaf;" horiz-adv-x="1024" d="M303 1253l27 170h614l-26 -170h-615z" />
<glyph unicode="&#xb0;" horiz-adv-x="674" d="M27 1155q0 131 90.5 221t220.5 90q129 0 220 -91t91 -220q0 -128 -91.5 -219.5t-221.5 -91.5q-129 0 -219 90.5t-90 220.5zM172 1157q0 -70 48 -118t118 -48q68 0 116 49t48 117t-48 116t-116 48q-69 0 -117.5 -48t-48.5 -116z" />
<glyph unicode="&#xb1;" horiz-adv-x="1706" d="M254 -18v231h1198v-231h-1198zM254 690v232h481v319h238v-319h479v-232h-479v-319h-238v319h-481z" />
<glyph unicode="&#xb2;" horiz-adv-x="825" d="M2 575l404 420q69 71 96.5 115.5t27.5 81.5q0 42 -27.5 66t-74.5 24q-57 0 -90 -36.5t-35 -102.5h-229q12 151 108.5 235t257.5 84q150 0 242 -73.5t92 -190.5q0 -83 -47.5 -158.5t-161.5 -171.5l-126 -106q29 1 61.5 2.5t36.5 1.5h204l-32 -191h-707z" />
<glyph unicode="&#xb3;" horiz-adv-x="825" d="M41 860h225q5 -63 38 -98t89 -35q51 0 84 29.5t33 74.5q0 52 -37 80.5t-104 28.5h-13l27 155q7 0 16 -0.5t25 -0.5q61 0 95 27.5t34 78.5q0 41 -30.5 66.5t-80.5 25.5q-41 0 -69.5 -22.5t-38.5 -65.5h-215q17 120 111.5 189t240.5 69q136 0 219.5 -63t83.5 -166 q0 -79 -53 -135t-150 -78q81 -19 123.5 -68t42.5 -123q0 -123 -95 -199.5t-249 -76.5q-164 0 -258 82t-94 225z" />
<glyph unicode="&#xb4;" horiz-adv-x="1024" d="M395 1153l219 352h310l-377 -352h-152z" />
<glyph unicode="&#xb5;" horiz-adv-x="1315" d="M-45 -428l238 1518h358l-80 -529q-6 -41 -9 -77.5t-3 -65.5q0 -85 35.5 -127.5t107.5 -42.5q88 0 138.5 68.5t74.5 220.5l88 553h357l-175 -1090h-321l18 125q-40 -75 -89.5 -108t-119.5 -33q-59 0 -106.5 31t-77.5 89l-82 -532h-352z" />
<glyph unicode="&#xb6;" horiz-adv-x="1024" d="M29 1130q0 158 106 253.5t283 95.5h579v-123h-106v-1356h-176v1356h-150v-1356h-174v784q-164 6 -263 101t-99 245z" />
<glyph unicode="&#xb7;" horiz-adv-x="627" d="M106 719q0 82 60 142.5t143 60.5q85 0 144 -59t59 -144q0 -86 -59 -143.5t-144 -57.5q-83 0 -143 59.5t-60 141.5z" />
<glyph unicode="&#xb8;" horiz-adv-x="1024" d="M94 -438l53 133q65 -27 124 -40t110 -13q45 0 71.5 20.5t26.5 54.5q0 37 -36.5 52.5t-123.5 15.5h-40l75 215h115l-32 -92q117 -2 175 -45.5t58 -128.5q0 -110 -73.5 -171t-207.5 -61q-52 0 -125.5 15t-169.5 45z" />
<glyph unicode="&#xb9;" horiz-adv-x="825" d="M211 1260l57 186h365l-152 -871h-245l120 685h-145z" />
<glyph unicode="&#xba;" horiz-adv-x="942" d="M20 1077q0 181 126 296.5t323 115.5q181 0 290 -96.5t109 -255.5q0 -179 -127 -293.5t-329 -114.5q-178 0 -285 95.5t-107 252.5zM276 1075q0 -65 40 -104t106 -39q83 0 136.5 59.5t53.5 151.5q0 67 -39.5 105t-107.5 38q-79 0 -134 -61t-55 -150z" />
<glyph unicode="&#xbb;" horiz-adv-x="1090" d="M-12 182l278 312l-215 337l187 136l307 -482l-375 -446zM440 178l271 316l-224 329l197 144l307 -482l-377 -446z" />
<glyph unicode="&#xbc;" horiz-adv-x="1919" d="M201 1272l55 172h348l-145 -811h-234l115 639h-139zM446 -39l816 1518h208l-808 -1518h-216zM1128 186l29 156l418 469h268l-84 -469h121l-27 -156h-120l-33 -186h-209l33 186h-396zM1337 342h215l54 254q2 18 15 62q5 18 7 26q-14 -23 -32 -47t-37 -45z" />
<glyph unicode="&#xbd;" horiz-adv-x="1919" d="M201 1272l55 172h348l-145 -811h-234l115 639h-139zM446 -39l816 1518h208l-808 -1518h-216zM1133 0l385 391q69 71 94.5 111.5t25.5 72.5q0 39 -26.5 61.5t-71.5 22.5q-56 0 -87.5 -34t-33.5 -94l-217 -1q11 141 103 219t245 78q143 0 230.5 -67.5t87.5 -177.5 q0 -78 -45 -149t-154 -161l-120 -98q28 1 59 2.5t34 1.5h197l-33 -178h-673z" />
<glyph unicode="&#xbe;" horiz-adv-x="1919" d="M39 897h214q6 -59 37.5 -91t84.5 -32q48 0 80 28t32 70q0 48 -36 74.5t-101 26.5h-10l27 145q6 -1 14 -1.5t22 -0.5q60 0 92.5 26t32.5 72q0 40 -28.5 64.5t-75.5 24.5q-42 0 -68.5 -21t-36.5 -61h-206q17 110 107.5 174.5t230.5 64.5q129 0 208.5 -58.5t79.5 -154.5 q0 -73 -50.5 -125.5t-143.5 -74.5q76 -16 118 -62.5t42 -116.5q0 -114 -91 -185t-239 -71q-156 0 -245 75.5t-91 209.5zM446 -39l816 1518h208l-808 -1518h-216zM1128 186l29 156l418 469h268l-84 -469h121l-27 -156h-120l-33 -186h-209l33 186h-396zM1337 342h215l54 254 q2 18 15 62q5 18 7 26q-14 -23 -32 -47t-37 -45z" />
<glyph unicode="&#xbf;" horiz-adv-x="1155" d="M68 391q0 175 109 289.5t278 114.5h26l31 194h332l-64 -395q-12 1 -27.5 1.5t-43.5 0.5q-146 0 -221.5 -49.5t-75.5 -145.5q0 -56 43 -94.5t108 -38.5q63 0 105.5 34.5t54.5 94.5h336q-25 -202 -162.5 -319t-351.5 -117q-210 0 -343.5 121t-133.5 309zM526 1300 q0 87 55.5 143t141.5 56q88 0 143.5 -55t55.5 -144q0 -80 -59 -139t-140 -59q-85 0 -141 56.5t-56 141.5z" />
<glyph unicode="&#xc0;" horiz-adv-x="1456" d="M-117 0l733 1464h490l311 -1464h-397l-59 276h-512l-140 -276h-426zM596 602h309l-67 342q-10 51 -15 91t-6 75q-21 -60 -38.5 -105.5t-27.5 -67.5zM607 1960h266l154 -352h-142z" />
<glyph unicode="&#xc1;" horiz-adv-x="1456" d="M-117 0l733 1464h490l311 -1464h-397l-59 276h-512l-140 -276h-426zM596 602h309l-67 342q-10 51 -15 91t-6 75q-21 -60 -38.5 -105.5t-27.5 -67.5zM674 1608l219 352h310l-377 -352h-152z" />
<glyph unicode="&#xc2;" horiz-adv-x="1456" d="M-117 0l733 1464h490l311 -1464h-397l-59 276h-512l-140 -276h-426zM531 1608l248 352h274l119 -352h-139l-129 182l-219 -182h-154zM596 602h309l-67 342q-10 51 -15 91t-6 75q-21 -60 -38.5 -105.5t-27.5 -67.5z" />
<glyph unicode="&#xc3;" horiz-adv-x="1456" d="M-117 0l733 1464h490l311 -1464h-397l-59 276h-512l-140 -276h-426zM568 1643q31 130 89.5 195t145.5 65q20 0 43.5 -4.5t48.5 -11.5l64 -21q15 -5 28.5 -7.5t24.5 -2.5q41 0 65 22t40 72h118q-34 -136 -90 -198t-143 -62q-23 0 -44.5 3.5t-43.5 10.5l-64 23 q-17 5 -32.5 7.5t-30.5 2.5q-38 0 -64 -24.5t-36 -69.5h-119zM596 602h309l-67 342q-10 51 -15 91t-6 75q-21 -60 -38.5 -105.5t-27.5 -67.5z" />
<glyph unicode="&#xc4;" horiz-adv-x="1456" d="M-117 0l733 1464h490l311 -1464h-397l-59 276h-512l-140 -276h-426zM578 1794q0 57 43 99.5t100 42.5q59 0 99.5 -41t40.5 -101q0 -63 -39 -103t-101 -40q-60 0 -101.5 41.5t-41.5 101.5zM596 602h309l-67 342q-10 51 -15 91t-6 75q-21 -60 -38.5 -105.5t-27.5 -67.5z M941 1794q0 57 42.5 99.5t100.5 42.5q59 0 100 -41.5t41 -100.5q0 -62 -39.5 -102.5t-101.5 -40.5q-61 0 -102 41.5t-41 101.5z" />
<glyph unicode="&#xc5;" horiz-adv-x="1456" d="M-117 0l754 1464l143 -4v4q-82 22 -132 89.5t-50 156.5q0 111 76 186.5t186 75.5q111 0 187.5 -76.5t76.5 -185.5q0 -85 -47 -150.5t-129 -95.5v-4l135 4l334 -1464h-397l-59 276h-512l-140 -276h-426zM596 602h309l-90 469zM750 1710q0 -48 34.5 -82.5t81.5 -34.5 q49 0 83 34.5t34 82.5t-34.5 82.5t-82.5 34.5t-82 -34t-34 -83z" />
<glyph unicode="&#xc6;" horiz-adv-x="1876" d="M-115 0l740 1464h936l73 -325h-463l56 -244h465l71 -311h-465l60 -258h465l75 -326h-870l-51 295h-522l-144 -295h-426zM600 612h322l-66 355q-9 50 -14 90t-7 75q-23 -65 -40.5 -111t-24.5 -60z" />
<glyph unicode="&#xc7;" horiz-adv-x="1337" d="M88 672q0 155 48.5 295.5t142.5 255.5q110 134 274.5 205t368.5 71q116 0 225 -26t213 -78l-66 -404q-84 73 -183 110.5t-206 37.5q-182 0 -300 -127t-118 -324q0 -178 99 -275.5t280 -97.5q78 0 160.5 19t173.5 57l-61 -379q-75 -24 -165.5 -36.5t-195.5 -12.5 q-313 0 -501.5 194t-188.5 515zM428 -438l53 133q65 -27 124 -40t110 -13q45 0 71.5 20.5t26.5 54.5q0 37 -36.5 52.5t-123.5 15.5h-40l75 215h115l-32 -92q117 -2 175 -45.5t58 -128.5q0 -110 -73.5 -171t-207.5 -61q-52 0 -125.5 15t-169.5 45z" />
<glyph unicode="&#xc8;" horiz-adv-x="1116" d="M41 0l231 1464h844l-53 -338h-453l-37 -239h420l-49 -318h-422l-39 -243h453l-51 -326h-844zM441 1960h266l154 -352h-142z" />
<glyph unicode="&#xc9;" horiz-adv-x="1116" d="M41 0l231 1464h844l-53 -338h-453l-37 -239h420l-49 -318h-422l-39 -243h453l-51 -326h-844zM508 1608l219 352h310l-377 -352h-152z" />
<glyph unicode="&#xca;" horiz-adv-x="1116" d="M41 0l231 1464h844l-53 -338h-453l-37 -239h420l-49 -318h-422l-39 -243h453l-51 -326h-844zM365 1608l248 352h274l119 -352h-139l-129 182l-219 -182h-154z" />
<glyph unicode="&#xcb;" horiz-adv-x="1116" d="M41 0l231 1464h844l-53 -338h-453l-37 -239h420l-49 -318h-422l-39 -243h453l-51 -326h-844zM412 1794q0 57 43 99.5t100 42.5q59 0 99.5 -41t40.5 -101q0 -63 -39 -103t-101 -40q-60 0 -101.5 41.5t-41.5 101.5zM775 1794q0 57 42.5 99.5t100.5 42.5q59 0 100 -41.5 t41 -100.5q0 -62 -39.5 -102.5t-101.5 -40.5q-61 0 -102 41.5t-41 101.5z" />
<glyph unicode="&#xcc;" horiz-adv-x="725" d="M47 0l232 1464h399l-232 -1464h-399zM242 1960h266l154 -352h-142z" />
<glyph unicode="&#xcd;" horiz-adv-x="725" d="M47 0l232 1464h399l-232 -1464h-399zM309 1608l219 352h310l-377 -352h-152z" />
<glyph unicode="&#xce;" horiz-adv-x="725" d="M47 0l232 1464h399l-232 -1464h-399zM166 1608l248 352h274l119 -352h-139l-129 182l-219 -182h-154z" />
<glyph unicode="&#xcf;" horiz-adv-x="725" d="M47 0l232 1464h399l-232 -1464h-399zM213 1794q0 57 43 99.5t100 42.5q59 0 99.5 -41t40.5 -101q0 -63 -39 -103t-101 -40q-60 0 -101.5 41.5t-41.5 101.5zM576 1794q0 57 42.5 99.5t100.5 42.5q59 0 100 -41.5t41 -100.5q0 -62 -39.5 -102.5t-101.5 -40.5 q-61 0 -102 41.5t-41 101.5z" />
<glyph unicode="&#xd0;" horiz-adv-x="1569" d="M-33 621l41 256h193l94 587h250q281 0 401.5 -15.5t196.5 -53.5q162 -82 248 -240.5t86 -376.5q0 -211 -77 -369t-233 -268q-110 -76 -260.5 -108.5t-505.5 -32.5h-55h-283l97 621h-193zM494 326q26 -3 53.5 -4.5t54.5 -2.5q243 0 367.5 118.5t124.5 348.5 q0 186 -89.5 270.5t-287.5 84.5h-94l-43 -275h292l-34 -237h-297z" />
<glyph unicode="&#xd1;" horiz-adv-x="1673" d="M41 0l231 1464h447l309 -723q4 -9 13 -31q51 -119 71 -208v37q0 40 4.5 88.5t13.5 117.5l113 719h391l-231 -1464h-430l-328 745q-36 81 -54.5 134t-31.5 106v-41q0 -40 -3.5 -84.5t-12.5 -118.5l-111 -741h-391zM688 1643q31 130 89.5 195t145.5 65q20 0 43.5 -4.5 t48.5 -11.5l64 -21q15 -5 28.5 -7.5t24.5 -2.5q41 0 65 22t40 72h118q-34 -136 -90 -198t-143 -62q-23 0 -44.5 3.5t-43.5 10.5l-64 23q-17 5 -32.5 7.5t-30.5 2.5q-38 0 -64 -24.5t-36 -69.5h-119z" />
<glyph unicode="&#xd2;" horiz-adv-x="1763" d="M88 647q0 164 50.5 306.5t150.5 258.5q117 138 285.5 211.5t365.5 73.5q330 0 533.5 -190t203.5 -494q0 -163 -51.5 -306.5t-150.5 -258.5q-121 -141 -286 -214t-364 -73q-157 0 -285.5 43t-228.5 129q-105 92 -164 227t-59 287zM494 690q0 -169 96.5 -270t257.5 -101 q176 0 299 133.5t123 325.5q0 158 -100 259.5t-255 101.5q-179 0 -300 -129t-121 -320zM725 1960h266l154 -352h-142z" />
<glyph unicode="&#xd3;" horiz-adv-x="1763" d="M88 647q0 164 50.5 306.5t150.5 258.5q117 138 285.5 211.5t365.5 73.5q330 0 533.5 -190t203.5 -494q0 -163 -51.5 -306.5t-150.5 -258.5q-121 -141 -286 -214t-364 -73q-157 0 -285.5 43t-228.5 129q-105 92 -164 227t-59 287zM494 690q0 -169 96.5 -270t257.5 -101 q176 0 299 133.5t123 325.5q0 158 -100 259.5t-255 101.5q-179 0 -300 -129t-121 -320zM792 1608l219 352h310l-377 -352h-152z" />
<glyph unicode="&#xd4;" horiz-adv-x="1763" d="M88 647q0 164 50.5 306.5t150.5 258.5q117 138 285.5 211.5t365.5 73.5q330 0 533.5 -190t203.5 -494q0 -163 -51.5 -306.5t-150.5 -258.5q-121 -141 -286 -214t-364 -73q-157 0 -285.5 43t-228.5 129q-105 92 -164 227t-59 287zM494 690q0 -169 96.5 -270t257.5 -101 q176 0 299 133.5t123 325.5q0 158 -100 259.5t-255 101.5q-179 0 -300 -129t-121 -320zM649 1608l248 352h274l119 -352h-139l-129 182l-219 -182h-154z" />
<glyph unicode="&#xd5;" horiz-adv-x="1763" d="M88 647q0 164 50.5 306.5t150.5 258.5q117 138 285.5 211.5t365.5 73.5q330 0 533.5 -190t203.5 -494q0 -163 -51.5 -306.5t-150.5 -258.5q-121 -141 -286 -214t-364 -73q-157 0 -285.5 43t-228.5 129q-105 92 -164 227t-59 287zM494 690q0 -169 96.5 -270t257.5 -101 q176 0 299 133.5t123 325.5q0 158 -100 259.5t-255 101.5q-179 0 -300 -129t-121 -320zM686 1643q31 130 89.5 195t145.5 65q20 0 43.5 -4.5t48.5 -11.5l64 -21q15 -5 28.5 -7.5t24.5 -2.5q41 0 65 22t40 72h118q-34 -136 -90 -198t-143 -62q-23 0 -44.5 3.5t-43.5 10.5 l-64 23q-17 5 -32.5 7.5t-30.5 2.5q-38 0 -64 -24.5t-36 -69.5h-119z" />
<glyph unicode="&#xd6;" horiz-adv-x="1763" d="M88 647q0 164 50.5 306.5t150.5 258.5q117 138 285.5 211.5t365.5 73.5q330 0 533.5 -190t203.5 -494q0 -163 -51.5 -306.5t-150.5 -258.5q-121 -141 -286 -214t-364 -73q-157 0 -285.5 43t-228.5 129q-105 92 -164 227t-59 287zM494 690q0 -169 96.5 -270t257.5 -101 q176 0 299 133.5t123 325.5q0 158 -100 259.5t-255 101.5q-179 0 -300 -129t-121 -320zM696 1794q0 57 43 99.5t100 42.5q59 0 99.5 -41t40.5 -101q0 -63 -39 -103t-101 -40q-60 0 -101.5 41.5t-41.5 101.5zM1059 1794q0 57 42.5 99.5t100.5 42.5q59 0 100 -41.5t41 -100.5 q0 -62 -39.5 -102.5t-101.5 -40.5q-61 0 -102 41.5t-41 101.5z" />
<glyph unicode="&#xd7;" horiz-adv-x="1706" d="M268 170l441 440l-441 443l162 161l440 -440l441 440l162 -161l-441 -443l441 -440l-162 -162l-441 441l-440 -441z" />
<glyph unicode="&#xd8;" horiz-adv-x="1763" d="M84 664q0 150 54 295.5t153 263.5q115 137 279 207.5t366 70.5q139 0 254.5 -33.5t220.5 -105.5l148 151l100 -94l-148 -149q84 -97 126 -212.5t42 -250.5q0 -155 -53 -299.5t-153 -263.5q-121 -142 -286.5 -214.5t-369.5 -72.5q-144 0 -257 32.5t-204 100.5l-159 -162 l-101 90l162 162q-88 99 -131 218t-43 266zM473 690q0 -63 13 -117t40 -102l615 623q-56 37 -111.5 55t-111.5 18q-192 0 -318.5 -136t-126.5 -341zM618 365q42 -35 97.5 -51.5t128.5 -16.5q189 0 317.5 140.5t128.5 346.5q0 59 -14.5 111.5t-44.5 99.5z" />
<glyph unicode="&#xd9;" horiz-adv-x="1530" d="M106 416q0 62 12 166t36 258l100 624h393l-117 -735q-14 -84 -19 -131.5t-5 -83.5q0 -94 53 -146.5t148 -52.5q226 0 321 602l2 14l84 533h393l-131 -831v-1q-43 -270 -108 -382q-82 -143 -231.5 -218t-352.5 -75q-262 0 -420 125.5t-158 333.5zM643 1960h266l154 -352 h-142z" />
<glyph unicode="&#xda;" horiz-adv-x="1530" d="M106 416q0 62 12 166t36 258l100 624h393l-117 -735q-14 -84 -19 -131.5t-5 -83.5q0 -94 53 -146.5t148 -52.5q226 0 321 602l2 14l84 533h393l-131 -831v-1q-43 -270 -108 -382q-82 -143 -231.5 -218t-352.5 -75q-262 0 -420 125.5t-158 333.5zM710 1608l219 352h310 l-377 -352h-152z" />
<glyph unicode="&#xdb;" horiz-adv-x="1530" d="M106 416q0 62 12 166t36 258l100 624h393l-117 -735q-14 -84 -19 -131.5t-5 -83.5q0 -94 53 -146.5t148 -52.5q226 0 321 602l2 14l84 533h393l-131 -831v-1q-43 -270 -108 -382q-82 -143 -231.5 -218t-352.5 -75q-262 0 -420 125.5t-158 333.5zM567 1608l248 352h274 l119 -352h-139l-129 182l-219 -182h-154z" />
<glyph unicode="&#xdc;" horiz-adv-x="1530" d="M106 416q0 62 12 166t36 258l100 624h393l-117 -735q-14 -84 -19 -131.5t-5 -83.5q0 -94 53 -146.5t148 -52.5q226 0 321 602l2 14l84 533h393l-131 -831v-1q-43 -270 -108 -382q-82 -143 -231.5 -218t-352.5 -75q-262 0 -420 125.5t-158 333.5zM614 1794q0 57 43 99.5 t100 42.5q59 0 99.5 -41t40.5 -101q0 -63 -39 -103t-101 -40q-60 0 -101.5 41.5t-41.5 101.5zM977 1794q0 57 42.5 99.5t100.5 42.5q59 0 100 -41.5t41 -100.5q0 -62 -39.5 -102.5t-101.5 -40.5q-61 0 -102 41.5t-41 101.5z" />
<glyph unicode="&#xdd;" horiz-adv-x="1194" d="M-41 1464h436l160 -374q13 -29 26.5 -65.5t26.5 -77.5q27 63 43.5 97.5t26.5 49.5l260 370h451l-625 -815l-102 -649h-394l103 653zM542 1608l219 352h310l-377 -352h-152z" />
<glyph unicode="&#xde;" horiz-adv-x="1319" d="M41 0l233 1464h390l-39 -227h59q294 0 436 -112t142 -343q0 -137 -60 -253.5t-162 -180.5q-57 -35 -135 -50t-241 -15h-82h-105l-47 -283h-389zM526 592h37q187 0 254.5 40t67.5 138q0 80 -57 118t-179 38h-71z" />
<glyph unicode="&#xdf;" horiz-adv-x="1346" d="M16 0l158 1012q30 190 71 282t113 152q73 60 174 90.5t232 30.5q236 0 369 -103.5t133 -285.5q0 -148 -83.5 -236.5t-242.5 -107.5q159 -41 235 -128t76 -229q0 -229 -145.5 -366.5t-390.5 -137.5q-60 0 -112 9t-99 26l41 258q30 -9 59 -13.5t60 -4.5q101 0 165 73.5 t64 190.5q0 110 -69.5 168.5t-202.5 61.5l37 231q9 -1 20.5 -1.5t34.5 -0.5q109 0 167 48.5t58 139.5q0 65 -45.5 106.5t-116.5 41.5q-112 0 -165.5 -64t-86.5 -268l-153 -975h-355z" />
<glyph unicode="&#xe0;" horiz-adv-x="1366" d="M47 434q0 262 151 435t377 173q105 0 188 -43.5t150 -134.5l23 146h338l-160 -1010h-332l17 135q-73 -85 -162.5 -128.5t-192.5 -43.5q-174 0 -285.5 131t-111.5 340zM406 469q0 -97 59 -156t156 -59q106 0 176.5 82.5t70.5 206.5q0 94 -59 152.5t-154 58.5 q-108 0 -178.5 -81t-70.5 -204zM521 1505h266l154 -352h-142z" />
<glyph unicode="&#xe1;" horiz-adv-x="1366" d="M47 434q0 262 151 435t377 173q105 0 188 -43.5t150 -134.5l23 146h338l-160 -1010h-332l17 135q-73 -85 -162.5 -128.5t-192.5 -43.5q-174 0 -285.5 131t-111.5 340zM406 469q0 -97 59 -156t156 -59q106 0 176.5 82.5t70.5 206.5q0 94 -59 152.5t-154 58.5 q-108 0 -178.5 -81t-70.5 -204zM588 1153l219 352h310l-377 -352h-152z" />
<glyph unicode="&#xe2;" horiz-adv-x="1366" d="M47 434q0 262 151 435t377 173q105 0 188 -43.5t150 -134.5l23 146h338l-160 -1010h-332l17 135q-73 -85 -162.5 -128.5t-192.5 -43.5q-174 0 -285.5 131t-111.5 340zM406 469q0 -97 59 -156t156 -59q106 0 176.5 82.5t70.5 206.5q0 94 -59 152.5t-154 58.5 q-108 0 -178.5 -81t-70.5 -204zM445 1153l248 352h274l119 -352h-139l-129 182l-219 -182h-154z" />
<glyph unicode="&#xe3;" horiz-adv-x="1366" d="M47 434q0 262 151 435t377 173q105 0 188 -43.5t150 -134.5l23 146h338l-160 -1010h-332l17 135q-73 -85 -162.5 -128.5t-192.5 -43.5q-174 0 -285.5 131t-111.5 340zM406 469q0 -97 59 -156t156 -59q106 0 176.5 82.5t70.5 206.5q0 94 -59 152.5t-154 58.5 q-108 0 -178.5 -81t-70.5 -204zM482 1188q31 130 89.5 195t145.5 65q20 0 43.5 -4.5t48.5 -11.5l64 -21q15 -5 28.5 -7.5t24.5 -2.5q41 0 65 22t40 72h118q-34 -136 -90 -198t-143 -62q-23 0 -44.5 3.5t-43.5 10.5l-64 23q-17 5 -32.5 7.5t-30.5 2.5q-38 0 -64 -24.5 t-36 -69.5h-119z" />
<glyph unicode="&#xe4;" horiz-adv-x="1366" d="M47 434q0 262 151 435t377 173q105 0 188 -43.5t150 -134.5l23 146h338l-160 -1010h-332l17 135q-73 -85 -162.5 -128.5t-192.5 -43.5q-174 0 -285.5 131t-111.5 340zM406 469q0 -97 59 -156t156 -59q106 0 176.5 82.5t70.5 206.5q0 94 -59 152.5t-154 58.5 q-108 0 -178.5 -81t-70.5 -204zM492 1339q0 57 43 99.5t100 42.5q59 0 99.5 -41t40.5 -101q0 -63 -39 -103t-101 -40q-60 0 -101.5 41.5t-41.5 101.5zM855 1339q0 57 42.5 99.5t100.5 42.5q59 0 100 -41.5t41 -100.5q0 -62 -39.5 -102.5t-101.5 -40.5q-61 0 -102 41.5 t-41 101.5z" />
<glyph unicode="&#xe5;" horiz-adv-x="1366" d="M47 434q0 262 151 435t377 173q105 0 188 -43.5t150 -134.5l23 146h338l-160 -1010h-332l17 135q-73 -85 -162.5 -128.5t-192.5 -43.5q-174 0 -285.5 131t-111.5 340zM406 469q0 -97 59 -156t156 -59q106 0 176.5 82.5t70.5 206.5q0 94 -59 152.5t-154 58.5 q-108 0 -178.5 -81t-70.5 -204zM487 1360q0 110 76 186t187 76q109 0 185.5 -76t76.5 -186t-76 -186t-186 -76q-111 0 -187 75.5t-76 186.5zM627 1360q0 -53 35 -88t88 -35q52 0 87 35.5t35 87.5q0 51 -36 87t-86 36q-51 0 -87 -36t-36 -87z" />
<glyph unicode="&#xe6;" horiz-adv-x="1868" d="M-10 297q0 158 112 253t295 95q81 0 151 -23.5t128 -70.5v67q0 84 -67.5 131.5t-186.5 47.5q-71 0 -148 -23t-155 -67l53 270q77 32 159 47.5t175 15.5q129 0 225.5 -53t155.5 -156q69 104 171 156.5t232 52.5q220 0 354 -139.5t134 -368.5q0 -26 -2 -54t-7 -58h-727v-19 q0 -99 47 -149.5t140 -50.5q68 0 128.5 27.5t127.5 88.5l192 -194q-85 -79 -196 -121.5t-234 -42.5q-154 0 -257 44.5t-167 137.5q-70 -94 -169.5 -138t-241.5 -44q-205 0 -313.5 87t-108.5 251zM326 301q0 -57 38.5 -86t114.5 -29q69 0 110.5 31t41.5 82q0 52 -41.5 83.5 t-112.5 31.5q-69 0 -110 -31t-41 -82zM1069 625h393q-2 80 -51.5 129t-128.5 49q-71 0 -126.5 -46.5t-86.5 -131.5z" />
<glyph unicode="&#xe7;" horiz-adv-x="1024" d="M41 461q0 261 164 423.5t430 162.5q85 0 162 -24.5t141 -72.5l-49 -309q-55 59 -111.5 88t-118.5 29q-105 0 -176 -81.5t-71 -201.5q0 -100 55 -158.5t149 -58.5q60 0 115.5 21t110.5 63l-54 -332q-71 -25 -137.5 -37t-130.5 -12q-214 0 -346.5 138.5t-132.5 361.5z M221 -438l53 133q65 -27 124 -40t110 -13q45 0 71.5 20.5t26.5 54.5q0 37 -36.5 52.5t-123.5 15.5h-40l75 215h115l-32 -92q117 -2 175 -45.5t58 -128.5q0 -110 -73.5 -171t-207.5 -61q-52 0 -125.5 15t-169.5 45z" />
<glyph unicode="&#xe8;" horiz-adv-x="1223" d="M31 459q0 259 162.5 421t420.5 162q234 0 376.5 -143t142.5 -379q0 -21 -6 -76q-2 -17 -3 -24h-757v-23q0 -96 49 -146t143 -50q66 0 124.5 27.5t125.5 88.5l192 -194q-86 -82 -198.5 -123t-251.5 -41q-247 0 -383.5 131.5t-136.5 368.5zM391 625h408q-5 82 -55 130 t-132 48q-74 0 -132.5 -47t-88.5 -131zM394 1505h266l154 -352h-142z" />
<glyph unicode="&#xe9;" horiz-adv-x="1223" d="M31 459q0 259 162.5 421t420.5 162q234 0 376.5 -143t142.5 -379q0 -21 -6 -76q-2 -17 -3 -24h-757v-23q0 -96 49 -146t143 -50q66 0 124.5 27.5t125.5 88.5l192 -194q-86 -82 -198.5 -123t-251.5 -41q-247 0 -383.5 131.5t-136.5 368.5zM391 625h408q-5 82 -55 130 t-132 48q-74 0 -132.5 -47t-88.5 -131zM461 1153l219 352h310l-377 -352h-152z" />
<glyph unicode="&#xea;" horiz-adv-x="1223" d="M31 459q0 259 162.5 421t420.5 162q234 0 376.5 -143t142.5 -379q0 -21 -6 -76q-2 -17 -3 -24h-757v-23q0 -96 49 -146t143 -50q66 0 124.5 27.5t125.5 88.5l192 -194q-86 -82 -198.5 -123t-251.5 -41q-247 0 -383.5 131.5t-136.5 368.5zM318 1153l248 352h274l119 -352 h-139l-129 182l-219 -182h-154zM391 625h408q-5 82 -55 130t-132 48q-74 0 -132.5 -47t-88.5 -131z" />
<glyph unicode="&#xeb;" horiz-adv-x="1223" d="M31 459q0 259 162.5 421t420.5 162q234 0 376.5 -143t142.5 -379q0 -21 -6 -76q-2 -17 -3 -24h-757v-23q0 -96 49 -146t143 -50q66 0 124.5 27.5t125.5 88.5l192 -194q-86 -82 -198.5 -123t-251.5 -41q-247 0 -383.5 131.5t-136.5 368.5zM365 1339q0 57 43 99.5t100 42.5 q59 0 99.5 -41t40.5 -101q0 -63 -39 -103t-101 -40q-60 0 -101.5 41.5t-41.5 101.5zM391 625h408q-5 82 -55 130t-132 48q-74 0 -132.5 -47t-88.5 -131zM728 1339q0 57 42.5 99.5t100.5 42.5q59 0 100 -41.5t41 -100.5q0 -62 -39.5 -102.5t-101.5 -40.5q-61 0 -102 41.5 t-41 101.5z" />
<glyph unicode="&#xec;" horiz-adv-x="639" d="M27 0l159 1010h359l-160 -1010h-358zM135 1505h266l154 -352h-142z" />
<glyph unicode="&#xed;" horiz-adv-x="639" d="M27 0l159 1010h359l-160 -1010h-358zM202 1153l219 352h310l-377 -352h-152z" />
<glyph unicode="&#xee;" horiz-adv-x="639" d="M27 0l159 1010h359l-160 -1010h-358zM59 1153l248 352h274l119 -352h-139l-129 182l-219 -182h-154z" />
<glyph unicode="&#xef;" horiz-adv-x="639" d="M27 0l159 1010h359l-160 -1010h-358zM106 1339q0 57 43 99.5t100 42.5q59 0 99.5 -41t40.5 -101q0 -63 -39 -103t-101 -40q-60 0 -101.5 41.5t-41.5 101.5zM469 1339q0 57 42.5 99.5t100.5 42.5q59 0 100 -41.5t41 -100.5q0 -62 -39.5 -102.5t-101.5 -40.5 q-61 0 -102 41.5t-41 101.5z" />
<glyph unicode="&#xf0;" horiz-adv-x="1255" d="M29 444q0 110 37.5 207t109.5 172q78 82 182 127t211 45q106 0 177 -29t112 -89q-17 72 -43.5 136t-64.5 124l-285 -66l-35 139l223 52q-38 41 -72 76.5t-63 64.5l217 149q74 -60 127 -113t94 -108l275 64l39 -140l-223 -51q70 -129 104.5 -261t34.5 -269 q0 -329 -171 -522t-462 -193q-235 0 -379.5 134.5t-144.5 350.5zM371 446q0 -91 52.5 -142.5t145.5 -51.5q106 0 175 77.5t69 196.5q0 91 -53.5 143t-147.5 52q-101 0 -171 -80t-70 -195z" />
<glyph unicode="&#xf1;" horiz-adv-x="1290" d="M10 0l160 1010h342l-25 -158q83 100 165 145t179 45q157 0 243.5 -84.5t86.5 -236.5q0 -52 -18 -173q-1 -11 -2 -18l-84 -530h-357l84 535q4 23 6.5 45t2.5 38q0 66 -35 100t-103 34q-93 0 -145.5 -67t-75.5 -214l-72 -471h-352zM422 1188q31 130 89.5 195t145.5 65 q20 0 43.5 -4.5t48.5 -11.5l64 -21q15 -5 28.5 -7.5t24.5 -2.5q41 0 65 22t40 72h118q-34 -136 -90 -198t-143 -62q-23 0 -44.5 3.5t-43.5 10.5l-64 23q-17 5 -32.5 7.5t-30.5 2.5q-38 0 -64 -24.5t-36 -69.5h-119z" />
<glyph unicode="&#xf2;" horiz-adv-x="1255" d="M27 457q0 257 168 422t430 165q242 0 387 -137t145 -366q0 -254 -170 -418t-438 -164q-237 0 -379.5 136t-142.5 362zM369 453q0 -93 53 -148t141 -55q111 0 182.5 84.5t71.5 216.5q0 94 -53.5 148.5t-145.5 54.5q-104 0 -176.5 -87.5t-72.5 -213.5zM410 1505h266 l154 -352h-142z" />
<glyph unicode="&#xf3;" horiz-adv-x="1255" d="M27 457q0 257 168 422t430 165q242 0 387 -137t145 -366q0 -254 -170 -418t-438 -164q-237 0 -379.5 136t-142.5 362zM369 453q0 -93 53 -148t141 -55q111 0 182.5 84.5t71.5 216.5q0 94 -53.5 148.5t-145.5 54.5q-104 0 -176.5 -87.5t-72.5 -213.5zM477 1153l219 352 h310l-377 -352h-152z" />
<glyph unicode="&#xf4;" horiz-adv-x="1255" d="M27 457q0 257 168 422t430 165q242 0 387 -137t145 -366q0 -254 -170 -418t-438 -164q-237 0 -379.5 136t-142.5 362zM334 1153l248 352h274l119 -352h-139l-129 182l-219 -182h-154zM369 453q0 -93 53 -148t141 -55q111 0 182.5 84.5t71.5 216.5q0 94 -53.5 148.5 t-145.5 54.5q-104 0 -176.5 -87.5t-72.5 -213.5z" />
<glyph unicode="&#xf5;" horiz-adv-x="1255" d="M27 457q0 257 168 422t430 165q242 0 387 -137t145 -366q0 -254 -170 -418t-438 -164q-237 0 -379.5 136t-142.5 362zM369 453q0 -93 53 -148t141 -55q111 0 182.5 84.5t71.5 216.5q0 94 -53.5 148.5t-145.5 54.5q-104 0 -176.5 -87.5t-72.5 -213.5zM371 1188 q31 130 89.5 195t145.5 65q20 0 43.5 -4.5t48.5 -11.5l64 -21q15 -5 28.5 -7.5t24.5 -2.5q41 0 65 22t40 72h118q-34 -136 -90 -198t-143 -62q-23 0 -44.5 3.5t-43.5 10.5l-64 23q-17 5 -32.5 7.5t-30.5 2.5q-38 0 -64 -24.5t-36 -69.5h-119z" />
<glyph unicode="&#xf6;" horiz-adv-x="1255" d="M27 457q0 257 168 422t430 165q242 0 387 -137t145 -366q0 -254 -170 -418t-438 -164q-237 0 -379.5 136t-142.5 362zM369 453q0 -93 53 -148t141 -55q111 0 182.5 84.5t71.5 216.5q0 94 -53.5 148.5t-145.5 54.5q-104 0 -176.5 -87.5t-72.5 -213.5zM381 1339 q0 57 43 99.5t100 42.5q59 0 99.5 -41t40.5 -101q0 -63 -39 -103t-101 -40q-60 0 -101.5 41.5t-41.5 101.5zM744 1339q0 57 42.5 99.5t100.5 42.5q59 0 100 -41.5t41 -100.5q0 -62 -39.5 -102.5t-101.5 -40.5q-61 0 -102 41.5t-41 101.5z" />
<glyph unicode="&#xf7;" horiz-adv-x="1706" d="M254 496v231h1198v-231h-1198zM688 205q0 68 49 117t117 49t116 -48.5t48 -117.5q0 -68 -47.5 -116t-116.5 -48t-117.5 48t-48.5 116zM688 1016q0 68 49 117t117 49q67 0 115.5 -49t48.5 -117t-48.5 -116t-117.5 -48t-116.5 48t-47.5 116z" />
<glyph unicode="&#xf8;" horiz-adv-x="1255" d="M27 457q0 258 169.5 422.5t436.5 164.5q92 0 167.5 -20t139.5 -61l102 110l84 -72l-100 -110q66 -69 98.5 -154.5t32.5 -189.5q0 -257 -170.5 -422.5t-439.5 -165.5q-86 0 -163 21.5t-148 64.5l-123 -131l-82 78l119 125q-61 62 -92 148t-31 192zM356 453 q0 -29 5.5 -53.5t15.5 -45.5l356 379q-26 16 -52.5 23.5t-53.5 7.5q-116 0 -193.5 -89t-77.5 -222zM440 274q27 -16 56.5 -24t62.5 -8q118 0 192 88.5t74 228.5q0 21 -6 45t-20 58z" />
<glyph unicode="&#xf9;" d="M55 336q0 40 7 100.5t28 186.5l62 387h354l-66 -418q-12 -83 -19 -138.5t-7 -72.5q0 -72 34.5 -110t100.5 -38q154 0 208 349q3 19 5 29l63 399h355l-72 -457l-3 -21q-53 -325 -165 -434q-71 -68 -173.5 -102.5t-231.5 -34.5q-223 0 -351.5 101t-128.5 274zM426 1505h266 l154 -352h-142z" />
<glyph unicode="&#xfa;" d="M55 336q0 40 7 100.5t28 186.5l62 387h354l-66 -418q-12 -83 -19 -138.5t-7 -72.5q0 -72 34.5 -110t100.5 -38q154 0 208 349q3 19 5 29l63 399h355l-72 -457l-3 -21q-53 -325 -165 -434q-71 -68 -173.5 -102.5t-231.5 -34.5q-223 0 -351.5 101t-128.5 274zM493 1153 l219 352h310l-377 -352h-152z" />
<glyph unicode="&#xfb;" d="M55 336q0 40 7 100.5t28 186.5l62 387h354l-66 -418q-12 -83 -19 -138.5t-7 -72.5q0 -72 34.5 -110t100.5 -38q154 0 208 349q3 19 5 29l63 399h355l-72 -457l-3 -21q-53 -325 -165 -434q-71 -68 -173.5 -102.5t-231.5 -34.5q-223 0 -351.5 101t-128.5 274zM350 1153 l248 352h274l119 -352h-139l-129 182l-219 -182h-154z" />
<glyph unicode="&#xfc;" d="M55 336q0 40 7 100.5t28 186.5l62 387h354l-66 -418q-12 -83 -19 -138.5t-7 -72.5q0 -72 34.5 -110t100.5 -38q154 0 208 349q3 19 5 29l63 399h355l-72 -457l-3 -21q-53 -325 -165 -434q-71 -68 -173.5 -102.5t-231.5 -34.5q-223 0 -351.5 101t-128.5 274zM397 1339 q0 57 43 99.5t100 42.5q59 0 99.5 -41t40.5 -101q0 -63 -39 -103t-101 -40q-60 0 -101.5 41.5t-41.5 101.5zM760 1339q0 57 42.5 99.5t100.5 42.5q59 0 100 -41.5t41 -100.5q0 -62 -39.5 -102.5t-101.5 -40.5q-61 0 -102 41.5t-41 101.5z" />
<glyph unicode="&#xfd;" horiz-adv-x="1075" d="M-35 -446l297 497l-287 959h369l88 -436q2 -9 6 -26q19 -88 21 -150q11 39 28.5 83.5t42.5 96.5l209 432h383l-784 -1456h-373zM422 1153l219 352h310l-377 -352h-152z" />
<glyph unicode="&#xfe;" horiz-adv-x="1366" d="M-43 -446l315 1996h351l-86 -544q-5 -25 -14 -60t-21 -76q70 90 152.5 133.5t181.5 43.5q189 0 303 -129.5t114 -344.5q0 -262 -150.5 -435t-377.5 -173q-103 0 -184.5 43t-155.5 135q0 -50 -2.5 -90.5t-7.5 -68.5l-66 -430h-352zM424 449q0 -91 59.5 -148t153.5 -57 q108 0 179 80.5t71 203.5q0 98 -58.5 156.5t-154.5 58.5q-108 0 -179 -83t-71 -211z" />
<glyph unicode="&#xff;" horiz-adv-x="1075" d="M-35 -446l297 497l-287 959h369l88 -436q2 -9 6 -26q19 -88 21 -150q11 39 28.5 83.5t42.5 96.5l209 432h383l-784 -1456h-373zM326 1339q0 57 43 99.5t100 42.5q59 0 99.5 -41t40.5 -101q0 -63 -39 -103t-101 -40q-60 0 -101.5 41.5t-41.5 101.5zM689 1339 q0 57 42.5 99.5t100.5 42.5q59 0 100 -41.5t41 -100.5q0 -62 -39.5 -102.5t-101.5 -40.5q-61 0 -102 41.5t-41 101.5z" />
<glyph unicode="&#x152;" horiz-adv-x="2204" d="M82 659q0 156 51.5 298.5t149.5 256.5q116 138 279 212.5t349 74.5q157 0 268.5 -50.5t184.5 -154.5l25 168h819l-54 -338h-452l-39 -239h422l-51 -318h-422l-37 -243h453l-52 -326h-821l23 154q-82 -96 -186 -142.5t-236 -46.5q-301 0 -487.5 192.5t-186.5 501.5z M471 688q0 -178 101 -284.5t272 -106.5q185 0 313.5 141t128.5 344q0 167 -105.5 274t-267.5 107q-189 0 -315.5 -136t-126.5 -339z" />
<glyph unicode="&#x153;" horiz-adv-x="1972" d="M27 442q0 268 167.5 435t434.5 167q117 0 213 -34t166 -101q81 68 175.5 101.5t202.5 33.5q225 0 363.5 -141t138.5 -371q0 -18 -2.5 -55.5t-3.5 -56.5h-739v-19q0 -99 47 -149.5t139 -50.5q69 0 129.5 27.5t126.5 88.5l193 -194q-86 -80 -196 -122t-232 -42 q-136 0 -236 32.5t-168 98.5q-76 -66 -174.5 -98.5t-220.5 -32.5q-236 0 -380 134t-144 349zM362 449q0 -107 55 -168.5t148 -61.5q118 0 192 94.5t74 243.5q0 106 -53.5 166.5t-148.5 60.5q-113 0 -190 -96t-77 -239zM1167 625h408q-6 84 -55.5 131t-130.5 47 q-74 0 -133 -47t-89 -131z" />
<glyph unicode="&#x178;" horiz-adv-x="1194" d="M-41 1464h436l160 -374q13 -29 26.5 -65.5t26.5 -77.5q27 63 43.5 97.5t26.5 49.5l260 370h451l-625 -815l-102 -649h-394l103 653zM446 1794q0 57 43 99.5t100 42.5q59 0 99.5 -41t40.5 -101q0 -63 -39 -103t-101 -40q-60 0 -101.5 41.5t-41.5 101.5zM809 1794 q0 57 42.5 99.5t100.5 42.5q59 0 100 -41.5t41 -100.5q0 -62 -39.5 -102.5t-101.5 -40.5q-61 0 -102 41.5t-41 101.5z" />
<glyph unicode="&#x2c6;" horiz-adv-x="1024" d="M252 1153l248 352h274l119 -352h-139l-129 182l-219 -182h-154z" />
<glyph unicode="&#x2dc;" horiz-adv-x="1024" d="M289 1188q31 130 89.5 195t145.5 65q20 0 43.5 -4.5t48.5 -11.5l64 -21q15 -5 28.5 -7.5t24.5 -2.5q41 0 65 22t40 72h118q-34 -136 -90 -198t-143 -62q-23 0 -44.5 3.5t-43.5 10.5l-64 23q-17 5 -32.5 7.5t-30.5 2.5q-38 0 -64 -24.5t-36 -69.5h-119z" />
<glyph unicode="&#x2000;" horiz-adv-x="986" />
<glyph unicode="&#x2001;" horiz-adv-x="1972" />
<glyph unicode="&#x2002;" horiz-adv-x="986" />
<glyph unicode="&#x2003;" horiz-adv-x="1972" />
<glyph unicode="&#x2004;" horiz-adv-x="657" />
<glyph unicode="&#x2005;" horiz-adv-x="493" />
<glyph unicode="&#x2006;" horiz-adv-x="328" />
<glyph unicode="&#x2007;" horiz-adv-x="328" />
<glyph unicode="&#x2008;" horiz-adv-x="246" />
<glyph unicode="&#x2009;" horiz-adv-x="394" />
<glyph unicode="&#x200a;" horiz-adv-x="109" />
<glyph unicode="&#x2010;" horiz-adv-x="934" d="M68 348l49 309h678l-50 -309h-677z" />
<glyph unicode="&#x2011;" horiz-adv-x="934" d="M68 348l49 309h678l-50 -309h-677z" />
<glyph unicode="&#x2012;" horiz-adv-x="934" d="M68 348l49 309h678l-50 -309h-677z" />
<glyph unicode="&#x2013;" horiz-adv-x="1024" d="M-57 371l41 264h1024l-41 -264h-1024z" />
<glyph unicode="&#x2014;" horiz-adv-x="2048" d="M-57 371l41 264h2048l-41 -264h-2048z" />
<glyph unicode="&#x2018;" horiz-adv-x="735" d="M35 852l481 612h307l-362 -612h-426z" />
<glyph unicode="&#x2019;" horiz-adv-x="735" d="M37 852l364 612h424l-481 -612h-307z" />
<glyph unicode="&#x201a;" horiz-adv-x="735" d="M-180 -291l362 613h426l-481 -613h-307z" />
<glyph unicode="&#x201c;" horiz-adv-x="1337" d="M37 852l481 612h307l-364 -612h-424zM641 852l481 612h308l-363 -612h-426z" />
<glyph unicode="&#x201d;" horiz-adv-x="1337" d="M39 852l364 612h424l-481 -612h-307zM641 852l365 612h426l-482 -612h-309z" />
<glyph unicode="&#x201e;" horiz-adv-x="1337" d="M-197 -291l363 613h426l-481 -613h-308zM403 -291l365 613h426l-481 -613h-310z" />
<glyph unicode="&#x2022;" horiz-adv-x="1208" d="M307 762q0 123 87 209t210 86q122 0 208.5 -86.5t86.5 -208.5t-87.5 -209.5t-209.5 -87.5q-123 0 -209 87t-86 210z" />
<glyph unicode="&#x2026;" horiz-adv-x="2048" d="M66 166q0 83 58.5 142t142.5 59q85 0 143.5 -58t58.5 -143q0 -86 -58 -144.5t-142 -58.5t-143.5 60t-59.5 143zM748 166q0 83 58.5 142t142.5 59q85 0 143.5 -58t58.5 -143q0 -86 -58 -144.5t-142 -58.5t-143.5 60t-59.5 143zM1432 166q0 83 58.5 142t142.5 59 q85 0 143.5 -58t58.5 -143q0 -86 -58 -144.5t-142 -58.5t-143.5 60t-59.5 143z" />
<glyph unicode="&#x202f;" horiz-adv-x="394" />
<glyph unicode="&#x2039;" horiz-adv-x="645" d="M29 520l374 447l181 -146l-277 -311l213 -338l-184 -133z" />
<glyph unicode="&#x203a;" horiz-adv-x="645" d="M-12 182l276 312l-213 337l187 136l307 -482l-377 -446z" />
<glyph unicode="&#x205f;" horiz-adv-x="493" />
<glyph unicode="&#x20ac;" d="M-23 537l52 122l143 1q1 26 4.5 57.5t9.5 74.5l-168 1l52 125h139q69 264 254.5 412.5t447.5 148.5q99 0 194.5 -26.5t178.5 -76.5l-67 -329q-70 57 -145 85.5t-154 28.5q-122 0 -205.5 -60t-134.5 -183h524l-70 -125h-476q-8 -32 -11.5 -64.5t-3.5 -69.5h422l-68 -122 h-358q10 -128 87.5 -197.5t211.5 -69.5q63 0 130 20.5t156 67.5l-69 -350q-71 -24 -137 -35.5t-134 -11.5q-281 0 -440 150t-170 426h-195z" />
<glyph unicode="&#x2122;" horiz-adv-x="1706" d="M188 1337v127h502v-127h-164v-424h-174v424h-164zM797 913v551h223l113 -303l114 303h221v-551h-155v390l-146 -390h-65l-150 390v-390h-155z" />
<glyph unicode="&#x25fc;" horiz-adv-x="1010" d="M0 0v1010h1010v-1010h-1010z" />
<glyph unicode="&#xfb01;" horiz-adv-x="1401" d="M8 752l41 258h168l16 102q3 13 7 39q31 205 90 279q55 69 141.5 107t190.5 38q48 0 100.5 -10.5t109.5 -32.5l-45 -289q-29 14 -57.5 21.5t-52.5 7.5q-59 0 -88.5 -37t-44.5 -135l-15 -90h222l-41 -258h-220l-118 -752h-355l119 752h-168zM788 0l160 1010h359l-160 -1010 h-359zM973 1311q0 78 56 134t136 56q83 0 138 -54t55 -136q0 -81 -56.5 -137t-136.5 -56q-79 0 -135.5 57t-56.5 136z" />
<glyph unicode="&#xfb02;" horiz-adv-x="1401" d="M8 752l41 258h168l16 102q3 13 7 39q31 205 90 279q55 69 141.5 107t190.5 38q48 0 100.5 -10.5t109.5 -32.5l-45 -289q-29 14 -57.5 21.5t-52.5 7.5q-59 0 -88.5 -37t-44.5 -135l-15 -90h222l-41 -258h-220l-118 -752h-355l119 752h-168zM788 0l246 1550h359l-246 -1550 h-359z" />
</font>
</defs>
</svg>
