<?xml version="1.0" standalone="no"?>
<!DOCTYPE svg PUBLIC "-//W3C//DTD SVG 1.1//EN" "http://www.w3.org/Graphics/SVG/1.1/DTD/svg11.dtd" >
<svg xmlns="http://www.w3.org/2000/svg">
<metadata></metadata>
<defs>
<font id="futura_ltcn_btlight" horiz-adv-x="797" >
<font-face units-per-em="2048" ascent="1556" descent="-492" />
<missing-glyph horiz-adv-x="397" />
<glyph horiz-adv-x="0" />
<glyph unicode="&#xd;" horiz-adv-x="397" />
<glyph unicode=" "  horiz-adv-x="397" />
<glyph unicode="&#x09;" horiz-adv-x="397" />
<glyph unicode="&#xa0;" horiz-adv-x="397" />
<glyph unicode="!" horiz-adv-x="512" d="M164 74q0 38 26.5 64t65.5 26q40 0 66 -26t26 -64t-27 -65t-65 -27q-36 0 -64 28t-28 64zM193 352v1108h126v-1108h-126z" />
<glyph unicode="&#x22;" horiz-adv-x="551" d="M100 881v553h86v-553h-86zM365 881v553h86v-553h-86z" />
<glyph unicode="#" horiz-adv-x="1575" d="M129 494l31 90h336l100 282h-360l28 90h365l176 498h110l-174 -498h271l176 498h110l-174 -498h322l-31 -90h-323l-101 -282h348l-30 -90h-351l-174 -494h-112l176 494h-270l-179 -494h-110l174 494h-334zM610 584h269l100 282h-270z" />
<glyph unicode="$" d="M74 133l86 94q46 -48 101.5 -73t115.5 -25q102 0 170.5 69.5t68.5 170.5q0 56 -14.5 100t-46.5 80q-46 53 -164 130q-33 22 -49 34q-146 103 -200 186t-54 193q0 119 54.5 207.5t152.5 127.5v183h72v-164h5q36 4 52 4h20v160h72v-166q46 -8 93 -28t96 -54l-66 -100 q-50 37 -99 54t-106 17q-94 0 -157.5 -64.5t-63.5 -160.5q0 -76 39.5 -137t142.5 -137q23 -17 70 -49q121 -81 176 -140q49 -52 75.5 -118t26.5 -136q0 -125 -59.5 -219.5t-167.5 -140.5v-185h-72v166q-24 -4 -42.5 -6t-34.5 -2v-158h-72v166q-58 11 -111.5 40.5 t-109.5 80.5z" />
<glyph unicode="%" horiz-adv-x="1319" d="M63 1030q0 231 53.5 340t166.5 109t168 -110t55 -339q0 -228 -54.5 -337t-168.5 -109q-113 0 -166.5 107.5t-53.5 338.5zM166 1032q0 -182 29 -268t90 -86t89.5 85.5t28.5 268.5t-28.5 267.5t-89.5 84.5q-62 0 -90.5 -84.5t-28.5 -267.5zM315 -18l586 1497h100 l-585 -1497h-101zM811 428q0 230 54 339.5t167 109.5t167 -109.5t54 -339.5q0 -229 -53.5 -337.5t-167.5 -108.5q-113 0 -167 108.5t-54 337.5zM913 430q0 -182 29 -268t90 -86t90 85.5t29 268.5t-28.5 267.5t-90.5 84.5q-61 0 -90 -84.5t-29 -267.5z" />
<glyph unicode="&#x26;" horiz-adv-x="930" d="M100 367q0 121 54 227.5t163 202.5q-80 149 -108.5 228t-28.5 142q0 128 78.5 205.5t208.5 77.5q106 0 175 -74t69 -188q0 -97 -62 -198.5t-186 -209.5l266 -489q31 31 57.5 60.5t51.5 62.5l82 -82q-37 -46 -69.5 -81.5t-66.5 -66.5l99 -184h-135l-52 100 q-60 -57 -125 -85.5t-135 -28.5q-142 0 -239 109.5t-97 271.5zM219 377q0 -117 65.5 -196t161.5 -79q49 0 98 25.5t97 75.5l-264 491q-77 -68 -117.5 -149t-40.5 -168zM299 1169q0 -49 27 -120.5t84 -171.5q91 88 138.5 167t47.5 144q0 67 -41 110t-104 43q-67 0 -109.5 -48 t-42.5 -124z" />
<glyph unicode="'" horiz-adv-x="285" d="M100 881v553h86v-553h-86z" />
<glyph unicode="(" horiz-adv-x="502" d="M117 588q0 251 61 499.5t184 499.5l115 -51q-116 -225 -174.5 -463t-58.5 -485q0 -248 58.5 -484.5t174.5 -461.5l-115 -52q-123 253 -184 500.5t-61 497.5z" />
<glyph unicode=")" horiz-adv-x="502" d="M27 -358q115 222 173 459.5t58 486.5t-58 487t-173 461l112 51q124 -251 185 -499.5t61 -499.5q0 -250 -61 -497.5t-185 -500.5z" />
<glyph unicode="*" horiz-adv-x="711" d="M119 1073l168 107l-168 108l35 66l159 -105v211h82v-211l160 105l35 -66l-170 -108l170 -107l-35 -65l-160 104v-211h-82v211l-161 -104z" />
<glyph unicode="+" horiz-adv-x="1706" d="M254 569v82h559v570h80v-570h559v-82h-559v-569h-80v569h-559z" />
<glyph unicode="," horiz-adv-x="397" d="M-12 -266l184 438l129 -63l-225 -422z" />
<glyph unicode="-" horiz-adv-x="551" d="M78 449v110h393v-110h-393z" />
<glyph unicode="." horiz-adv-x="397" d="M106 74q0 38 27 64t66 26t65.5 -26t26.5 -64t-27.5 -65t-64.5 -27t-65 28t-28 64z" />
<glyph unicode="/" horiz-adv-x="569" d="M-117 -190l623 1669h112l-622 -1669h-113z" />
<glyph unicode="0" d="M72 729q0 385 79 567.5t246 182.5t246.5 -183.5t79.5 -566.5q0 -382 -79.5 -564.5t-246.5 -182.5t-246 181t-79 566zM207 715q0 -313 46.5 -462t143.5 -149q100 0 146.5 150.5t46.5 476.5q0 325 -46.5 475t-146.5 150q-99 0 -144.5 -153t-45.5 -488z" />
<glyph unicode="1" d="M156 1339l30 121h289v-1460h-129v1339h-190z" />
<glyph unicode="2" d="M59 0q304 573 397 797t93 344q0 97 -45 156t-119 59q-84 0 -127 -66.5t-43 -195.5v-27h-127v20q0 189 76.5 290.5t218.5 101.5q129 0 213 -93.5t84 -240.5q0 -129 -83.5 -340t-334.5 -682h404v-123h-607z" />
<glyph unicode="3" d="M90 360v33h133v-31q0 -129 39.5 -192.5t120.5 -63.5q87 0 132.5 80t45.5 232q0 179 -56.5 249t-197.5 70q-7 0 -22.5 -1t-24.5 -1l1 123q9 -1 20 -1.5t32 -0.5q127 0 181.5 65t54.5 218q0 104 -40.5 158.5t-117.5 54.5q-71 0 -110 -55.5t-39 -155.5v-15l-131 1 q4 172 76.5 262t207.5 90q133 0 208 -94t75 -261q0 -134 -43.5 -216t-126.5 -105q93 -35 138.5 -130t45.5 -255q0 -206 -83.5 -321t-231.5 -115q-137 0 -212 99t-75 279z" />
<glyph unicode="4" d="M82 397v121l391 942h137v-948h107v-115h-107v-397h-123v397h-405zM199 512h288v240q0 131 7 276.5t20 304.5q-23 -66 -49 -136.5t-55 -145.5z" />
<glyph unicode="5" d="M113 51l41 135q53 -38 103 -56.5t97 -18.5q103 0 161 82t58 229q0 162 -59.5 251t-167.5 89q-57 0 -109.5 -17.5t-101.5 -52.5l92 768h441v-119h-334l-53 -462q31 5 52 7.5t38 2.5q147 0 241.5 -122.5t94.5 -320.5q0 -214 -94 -339t-253 -125q-64 0 -125 17t-122 52z" />
<glyph unicode="6" d="M111 399q0 126 31.5 258t99.5 287l215 516h137l-305 -704q40 34 80.5 49.5t87.5 15.5q119 0 192.5 -111t73.5 -296q0 -200 -80 -316t-217 -116q-149 0 -232 109.5t-83 307.5zM240 420q0 -155 46.5 -238.5t133.5 -83.5q82 0 127 80t45 225q0 149 -45.5 227.5t-130.5 78.5 q-84 0 -130 -75.5t-46 -213.5z" />
<glyph unicode="7" d="M127 1341v119h606l-461 -1460h-131l426 1341h-440z" />
<glyph unicode="8" d="M88 410q0 167 44 264t136 133q-72 28 -112.5 111t-40.5 204q0 169 74.5 263t207.5 94t209 -94.5t76 -262.5q0 -121 -40.5 -204t-113.5 -111q93 -36 137 -133t44 -264q0 -203 -82.5 -315.5t-229.5 -112.5t-228 112t-81 316zM217 432q0 -159 47.5 -246.5t132.5 -87.5 t133 80t48 223q0 168 -46.5 256t-134.5 88q-87 0 -133.5 -80t-46.5 -233zM240 1124q0 -126 41 -194t118 -68q74 0 116 66.5t42 183.5q0 122 -41.5 186t-120.5 64q-71 0 -113 -64t-42 -174z" />
<glyph unicode="9" d="M102 1044q0 201 81 318t218 117q149 0 231.5 -109.5t82.5 -308.5q0 -125 -32 -257.5t-99 -287.5l-215 -516h-138l306 705q-38 -34 -78.5 -50t-85.5 -16q-124 0 -197.5 109.5t-73.5 295.5zM233 1049q0 -143 46 -220t131 -77q83 0 129.5 75.5t46.5 212.5q0 155 -47 238.5 t-133 83.5q-83 0 -128 -81t-45 -232z" />
<glyph unicode=":" horiz-adv-x="397" d="M106 74q0 38 27 64t66 26t65.5 -26t26.5 -64t-27.5 -65t-64.5 -27t-65 28t-28 64zM106 653q0 39 27 65.5t66 26.5t65.5 -26.5t26.5 -65.5q0 -37 -27 -63.5t-65 -26.5q-37 0 -65 27.5t-28 62.5z" />
<glyph unicode=";" horiz-adv-x="397" d="M-12 -266l184 438l129 -63l-225 -422zM115 659q0 39 26 66t64 27q39 0 65.5 -27t26.5 -66q0 -37 -27 -64.5t-65 -27.5q-36 0 -63 28t-27 64z" />
<glyph unicode="&#x3c;" horiz-adv-x="1706" d="M264 580v61l1178 483v-90l-1045 -424l1045 -424v-88z" />
<glyph unicode="=" horiz-adv-x="1706" d="M254 387v82h1198v-82h-1198zM254 752v79h1198v-79h-1198z" />
<glyph unicode="&#x3e;" horiz-adv-x="1706" d="M264 98v88l1045 424l-1045 424v90l1178 -483v-61z" />
<glyph unicode="?" horiz-adv-x="653" d="M98 1094v96q0 154 56 221.5t184 67.5q130 0 188 -79t58 -259q0 -231 -57.5 -326.5t-192.5 -99.5v-353h-129v465h78q101 0 136.5 58t35.5 243q0 147 -26 194.5t-93 47.5q-57 0 -86 -41t-29 -123v-112h-123zM182 74q0 38 27 64t65 26q40 0 66.5 -26t26.5 -64t-27.5 -65 t-65.5 -27q-36 0 -64 28t-28 64z" />
<glyph unicode="@" horiz-adv-x="2048" d="M121 522q0 162 50.5 307t147.5 265q144 175 345.5 265.5t449.5 90.5q160 0 304.5 -44t248.5 -124q128 -98 194 -226.5t66 -277.5q0 -169 -63 -308t-181 -232q-67 -54 -145.5 -82.5t-159.5 -28.5q-95 0 -143.5 36.5t-48.5 108.5q0 12 3 34q1 3 1 5q-49 -88 -125 -136 t-166 -48q-154 0 -233.5 83t-79.5 243q0 228 134.5 386t326.5 158q95 0 160 -43t96 -127l61 129h80l-137 -553q-10 -36 -15.5 -64.5t-5.5 -43.5q0 -44 30.5 -68t86.5 -24q48 0 100 19.5t103 56.5q101 74 162 207t61 282q0 273 -199.5 439.5t-525.5 166.5q-168 0 -310.5 -48 t-258.5 -144q-154 -128 -232 -297t-78 -375q0 -327 221.5 -522t591.5 -195q161 0 324 50.5t299 142.5l29 -45q-146 -110 -308.5 -165t-339.5 -55q-187 0 -343 46.5t-277 138.5q-152 115 -226.5 267.5t-74.5 348.5zM690 446q0 -115 57.5 -180t159.5 -65q111 0 196 72.5 t116 193.5l63 254q-22 99 -81.5 151t-151.5 52q-152 0 -255.5 -138t-103.5 -340z" />
<glyph unicode="A" horiz-adv-x="750" d="M29 0l290 1460h127l297 -1460h-135l-57 295h-334l-51 -295h-137zM238 412h288l-118 681q-7 40 -13 95.5t-10 121.5q-5 -63 -11.5 -117t-15.5 -101z" />
<glyph unicode="B" horiz-adv-x="825" d="M147 0v1460h218q168 0 247.5 -90t79.5 -283q0 -140 -48.5 -226.5t-137.5 -106.5q112 -32 164.5 -120.5t52.5 -244.5q0 -195 -90.5 -292t-272.5 -97h-213zM281 119h61q138 0 191 60t53 218q0 153 -53.5 224t-167.5 71h-84v-573zM281 811h81q104 0 149.5 61.5t45.5 204.5 q0 144 -43.5 204t-144.5 60h-88v-530z" />
<glyph unicode="C" horiz-adv-x="674" d="M76 719q0 369 102 559t301 190q50 0 94.5 -10t85.5 -31v-143q-47 31 -86.5 45t-78.5 14q-144 0 -211.5 -147t-67.5 -459q0 -339 62.5 -479.5t207.5 -140.5q30 0 57.5 6t53.5 18q15 7 30 16.5t29 20.5v-139q-42 -24 -90.5 -36.5t-99.5 -12.5q-198 0 -293.5 179.5 t-95.5 549.5z" />
<glyph unicode="D" horiz-adv-x="834" d="M147 0v1460h166q249 0 347 -155.5t98 -579.5q0 -403 -101 -564t-348 -161h-162zM281 123h26q177 0 245.5 121t68.5 463q0 383 -66 507.5t-240 124.5h-34v-1216z" />
<glyph unicode="E" horiz-adv-x="707" d="M147 0v1460h459v-123h-325v-526h321v-119h-321v-569h335v-123h-469z" />
<glyph unicode="F" horiz-adv-x="664" d="M147 0v1460h459v-123h-325v-518h321v-117h-321v-702h-134z" />
<glyph unicode="G" horiz-adv-x="782" d="M76 729q0 383 87.5 566.5t270.5 183.5q102 0 176.5 -70.5t112.5 -202.5l-123 -51q-23 97 -67 147t-107 50q-108 0 -160.5 -153t-52.5 -468q0 -335 49.5 -481t161.5 -146q86 0 127 76.5t41 239.5v221h-203v123h334v-328q0 -228 -76.5 -342t-228.5 -114q-178 0 -260 178.5 t-82 570.5z" />
<glyph unicode="H" horiz-adv-x="909" d="M147 0v1460h134v-588h348v588h133v-1460h-133v756h-348v-756h-134z" />
<glyph unicode="I" horiz-adv-x="426" d="M147 0v1460h134v-1460h-134z" />
<glyph unicode="J" horiz-adv-x="526" d="M6 14v142q27 -27 61 -41.5t72 -14.5q61 0 85 43.5t24 165.5v1151h131v-1165q0 -171 -49.5 -243t-163.5 -72q-42 0 -82 8.5t-78 25.5z" />
<glyph unicode="K" horiz-adv-x="725" d="M147 0v1460h134v-1460h-134zM281 754l309 706h135l-315 -700l315 -760h-141z" />
<glyph unicode="L" horiz-adv-x="588" d="M147 0v1460h134v-1339h313v-121h-447z" />
<glyph unicode="M" horiz-adv-x="1081" d="M39 0l197 1460h118l148 -946q4 -26 27 -225q8 -80 14 -127q7 80 19 168t28 184l158 946h114l178 -1460h-122l-99 956q0 6 -2 21q-15 163 -24 296q-12 -135 -22 -219t-21 -148l-152 -906h-115l-145 942q-1 7 -4 23q-28 177 -39 308q-6 -67 -14 -171q-12 -153 -15 -173 l-106 -929h-121z" />
<glyph unicode="N" horiz-adv-x="901" d="M147 0v1460h115l330 -999q7 -21 28 -102.5t52 -204.5q-16 131 -23.5 268t-7.5 283v755h115v-1460h-115l-322 983q-22 70 -44 148.5t-46 177.5q17 -155 25 -292t8 -255v-762h-115z" />
<glyph unicode="O" horiz-adv-x="877" d="M76 729q0 384 88 567t274 183t274.5 -183t88.5 -567t-88.5 -565.5t-274.5 -181.5t-274 181.5t-88 565.5zM213 731q0 -324 54.5 -475.5t170.5 -151.5q117 0 171.5 149.5t54.5 477.5q0 327 -54.5 476t-171.5 149q-116 0 -170.5 -150.5t-54.5 -474.5z" />
<glyph unicode="P" horiz-adv-x="743" d="M147 0v1460h187q190 0 276 -93.5t86 -299.5q0 -190 -83 -278.5t-261 -88.5h-71v-700h-134zM281 819h73q112 0 160.5 62t48.5 204q0 133 -53 194.5t-166 61.5h-63v-522z" />
<glyph unicode="Q" horiz-adv-x="877" d="M76 729q0 384 88 567t274 183t274.5 -183t88.5 -567q0 -219 -29 -370.5t-88 -237.5l104 -160l-92 -61l-92 139q-38 -29 -79 -43t-87 -14q-186 0 -274 181.5t-88 565.5zM213 731q0 -331 54.5 -479t174.5 -148q29 0 53 9.5t46 29.5l-133 207l90 60l116 -187q24 71 37 200.5 t13 307.5q0 327 -54.5 476t-171.5 149q-116 0 -170.5 -150.5t-54.5 -474.5z" />
<glyph unicode="R" horiz-adv-x="782" d="M147 0v1460h162q210 0 297.5 -87.5t87.5 -295.5q0 -174 -66 -263t-204 -99l317 -715h-139l-321 754v-754h-134zM281 809h63q111 0 162 62.5t51 199.5q0 141 -50 203.5t-163 62.5h-63v-528z" />
<glyph unicode="S" horiz-adv-x="750" d="M74 1098q0 164 97 272.5t243 108.5q58 0 114.5 -20t110.5 -60v-172q-44 62 -100 94.5t-119 32.5q-95 0 -154 -67.5t-59 -176.5q0 -92 40 -158.5t189 -177.5q154 -113 203 -196.5t49 -198.5q0 -174 -100 -285.5t-254 -111.5q-67 0 -127 17t-117 52v174q53 -59 111 -89 t121 -30q102 0 167.5 74t65.5 191q0 50 -13.5 92t-41.5 78q-43 55 -152 135q-44 32 -65 49q-111 90 -160 177.5t-49 195.5z" />
<glyph unicode="T" horiz-adv-x="621" d="M14 1341v119h588v-119h-227v-1341h-133v1341h-228z" />
<glyph unicode="U" horiz-adv-x="913" d="M145 416v1044h134v-1044q0 -183 39 -249.5t137 -66.5t137 66.5t39 249.5v1044h133v-1044q0 -242 -70.5 -338t-238.5 -96q-169 0 -239.5 96t-70.5 338z" />
<glyph unicode="V" horiz-adv-x="768" d="M29 1460h133l190 -1007q8 -39 18.5 -112.5t20.5 -164.5q6 98 35 263l2 12l182 1009h135l-296 -1460h-119z" />
<glyph unicode="W" horiz-adv-x="1157" d="M31 1460h133l135 -913q12 -80 20 -176.5t13 -214.5q6 69 16.5 151.5t28.5 196.5l151 956h125l154 -966q11 -67 19.5 -147.5t15.5 -186.5q12 105 23.5 219t13.5 125l133 956h131l-242 -1460h-117l-157 967q-20 117 -28 194t-9 141q-5 -81 -14.5 -163.5t-22.5 -165.5 l-164 -973h-121z" />
<glyph unicode="X" horiz-adv-x="702" d="M0 0l287 741l-269 719h140l149 -440q8 -20 20 -66t29 -123q12 53 25.5 103t28.5 94l145 432h135l-264 -717l276 -743h-141l-155 458q-14 39 -26.5 83.5t-25.5 99.5q-9 -39 -22 -83t-35 -109l-152 -449h-145z" />
<glyph unicode="Y" horiz-adv-x="674" d="M-4 1460h139l205 -672l201 672h135l-273 -827v-633h-133v637z" />
<glyph unicode="Z" horiz-adv-x="627" d="M20 0l422 1339h-366v121h534l-420 -1337h371v-123h-541z" />
<glyph unicode="[" horiz-adv-x="502" d="M150 -383v1948h317v-111h-197v-1728h197v-109h-317z" />
<glyph unicode="\" horiz-adv-x="569" d="M-49 1479h112l621 -1669h-111z" />
<glyph unicode="]" horiz-adv-x="502" d="M35 -274h196v1730h-196v109h317v-1948h-317v109z" />
<glyph unicode="^" horiz-adv-x="2048" d="M424 901l539 557h118l541 -557h-125l-473 469l-475 -469h-125z" />
<glyph unicode="_" horiz-adv-x="1024" d="M0 -403h1024v-80h-1024v80z" />
<glyph unicode="`" horiz-adv-x="1024" d="M324 1464h120l168 -348h-73z" />
<glyph unicode="a" horiz-adv-x="721" d="M74 514q0 249 57.5 364t181.5 115q56 0 99 -26t73 -78v92h119v-981h-119v90q-22 -52 -67.5 -80t-104.5 -28q-126 0 -182.5 123.5t-56.5 408.5zM197 485q0 -230 33.5 -316.5t115.5 -86.5q79 0 112.5 89.5t33.5 313.5q0 225 -33.5 315.5t-112.5 90.5q-82 0 -115.5 -88 t-33.5 -318z" />
<glyph unicode="b" horiz-adv-x="721" d="M117 0v1550h121v-657q26 49 69.5 74.5t100.5 25.5q125 0 182 -118.5t57 -385.5q0 -262 -58.5 -384.5t-182.5 -122.5q-59 0 -103.5 28t-69.5 80v-90h-116zM229 485q0 -224 33.5 -313.5t112.5 -89.5q82 0 115.5 87t33.5 316q0 230 -33.5 318t-115.5 88q-79 0 -112.5 -90.5 t-33.5 -315.5z" />
<glyph unicode="c" horiz-adv-x="541" d="M84 473q0 259 76 389.5t227 130.5q33 0 64 -9.5t57 -27.5v-141q-28 34 -57 50t-64 16q-94 0 -137 -99t-43 -315q0 -181 44 -273t132 -92q38 0 69 18.5t54 55.5v-143q-34 -23 -69 -34t-75 -11q-129 0 -203.5 128.5t-74.5 356.5z" />
<glyph unicode="d" horiz-adv-x="721" d="M74 514q0 249 57.5 364t181.5 115q57 0 100.5 -25.5t69.5 -74.5v657h121v-1550h-121v90q-21 -51 -65.5 -79.5t-104.5 -28.5q-126 0 -182.5 123.5t-56.5 408.5zM197 485q0 -230 33.5 -316.5t115.5 -86.5q79 0 112.5 89.5t33.5 313.5q0 225 -33.5 315.5t-112.5 90.5 q-82 0 -115.5 -88t-33.5 -318z" />
<glyph unicode="e" horiz-adv-x="659" d="M66 483q0 246 74 381t206 135t199 -127.5t67 -377.5v-33h-428v-33q0 -163 42 -252.5t116 -89.5q61 0 99.5 64.5t41.5 174.5h117q-7 -159 -77 -251t-183 -92q-137 0 -205.5 125.5t-68.5 375.5zM184 561h313q-1 156 -39.5 242t-107.5 86q-73 0 -116.5 -85t-49.5 -243z" />
<glyph unicode="f" horiz-adv-x="393" d="M18 881v100h113v309q0 145 43 211t137 66q28 0 55.5 -4t55.5 -13v-139q-24 22 -46 32.5t-44 10.5q-45 0 -62.5 -32t-17.5 -144v-297h170v-100h-170v-881h-121v881h-113z" />
<glyph unicode="g" horiz-adv-x="721" d="M74 518q0 245 58 360t181 115q56 0 99 -26.5t71 -77.5v92h121v-981q0 -129 -7.5 -183t-25.5 -87q-34 -64 -91 -96.5t-134 -32.5q-118 0 -184 74t-66 206v17h111v-15q0 -90 34.5 -135t102.5 -45q73 0 106 49t33 158v174q-24 -47 -66 -71.5t-100 -24.5q-131 0 -187 119 t-56 411zM197 485q0 -230 33.5 -316.5t115.5 -86.5q79 0 112.5 89.5t33.5 313.5q0 225 -33.5 315.5t-112.5 90.5q-82 0 -115.5 -88t-33.5 -318z" />
<glyph unicode="h" horiz-adv-x="729" d="M117 0v1550h121v-659q32 51 80 76.5t108 25.5q104 0 151.5 -73.5t47.5 -239.5v-680h-121v698q0 115 -27 158t-94 43q-71 0 -108 -62.5t-37 -183.5v-653h-121z" />
<glyph unicode="i" horiz-adv-x="356" d="M86 1282q0 37 26 62.5t64 25.5q39 0 65.5 -26t26.5 -64q0 -36 -27 -63t-65 -27q-36 0 -63 27.5t-27 64.5zM115 0v981h123v-981h-123z" />
<glyph unicode="j" horiz-adv-x="356" d="M86 1282q0 37 26 62.5t64 25.5q39 0 65.5 -26t26.5 -64q0 -36 -27 -63t-65 -27q-36 0 -63 27.5t-27 64.5zM115 -375v1356h123v-1356h-123z" />
<glyph unicode="k" horiz-adv-x="668" d="M117 0v1550h121v-1550h-121zM240 547l249 434h136l-263 -426l351 -555h-144z" />
<glyph unicode="l" horiz-adv-x="356" d="M115 0v1550h123v-1550h-123z" />
<glyph unicode="m" horiz-adv-x="1116" d="M117 0v981h121v-90q32 51 80 76.5t108 25.5q63 0 108 -31t72 -94q36 62 88.5 93.5t118.5 31.5q105 0 152 -73.5t47 -239.5v-680h-121v698q0 115 -27 158t-94 43q-71 0 -108 -62.5t-37 -183.5v-653h-121v698q0 115 -27 158t-94 43q-71 0 -108 -62.5t-37 -183.5v-653h-121z " />
<glyph unicode="n" horiz-adv-x="729" d="M117 0v981h121v-90q32 51 80 76.5t108 25.5q104 0 151.5 -73.5t47.5 -239.5v-680h-121v698q0 115 -27 158t-94 43q-71 0 -108 -62.5t-37 -183.5v-653h-121z" />
<glyph unicode="o" horiz-adv-x="692" d="M66 492q0 253 70.5 381t211.5 128q137 0 208 -129.5t71 -379.5q0 -252 -70.5 -381t-208.5 -129q-141 0 -211.5 128t-70.5 382zM190 492q0 -214 37.5 -311t118.5 -97q79 0 117.5 99.5t38.5 305.5q0 207 -38.5 307.5t-117.5 100.5q-81 0 -118.5 -96t-37.5 -309z" />
<glyph unicode="p" horiz-adv-x="721" d="M121 -393v1374h121v-82q33 48 75 71t95 23q126 0 182.5 -117.5t56.5 -386.5q0 -262 -58.5 -384.5t-182.5 -122.5q-50 0 -92.5 21.5t-75.5 64.5v-461h-121zM233 485q0 -224 33.5 -313.5t112.5 -89.5q81 0 114 86t33 317q0 233 -33 319.5t-114 86.5q-79 0 -112.5 -90.5 t-33.5 -315.5z" />
<glyph unicode="q" horiz-adv-x="721" d="M70 514q0 249 57.5 364t181.5 115q52 0 94 -23t76 -71v82h121v-1374h-121v461q-35 -44 -77 -65t-91 -21q-127 0 -184 124.5t-57 407.5zM193 485q0 -230 33.5 -316.5t115.5 -86.5q79 0 112 89.5t33 313.5q0 225 -33 315.5t-112 90.5q-82 0 -115.5 -88t-33.5 -318z" />
<glyph unicode="r" horiz-adv-x="426" d="M117 0v981h121v-133q27 69 67.5 105t93.5 40v-131q-90 -5 -125.5 -63t-35.5 -213v-586h-121z" />
<glyph unicode="s" horiz-adv-x="541" d="M53 758q0 104 68 171.5t174 67.5q45 0 88.5 -12.5t85.5 -38.5v-125q-37 36 -79 55t-83 19q-59 0 -99 -38t-40 -95q0 -80 139 -196l8 -7q131 -109 169 -172.5t38 -140.5q0 -117 -74 -193t-188 -76q-53 0 -103.5 19t-90.5 53v144q44 -51 91 -77t95 -26q67 0 110.5 43 t43.5 111q0 83 -150 211l-14 12q-119 101 -154 160.5t-35 130.5z" />
<glyph unicode="t" horiz-adv-x="412" d="M35 881v100h102v274h121v-274h162v-100h-162v-881h-121v881h-102z" />
<glyph unicode="u" horiz-adv-x="727" d="M106 317v664h121v-643q0 -136 31.5 -191t106.5 -55q73 0 104 54t31 192v643h121v-664q0 -175 -61.5 -255t-194.5 -80q-134 0 -196.5 80.5t-62.5 254.5z" />
<glyph unicode="v" horiz-adv-x="612" d="M25 981h127l124 -629q13 -66 22.5 -128t16.5 -123q10 60 43 220l7 31l129 629h122l-235 -981h-133z" />
<glyph unicode="w" horiz-adv-x="938" d="M29 981h123l88 -520q10 -61 20.5 -136.5t26.5 -207.5l5 38q29 209 42 279l94 547h123l102 -632q1 -8 4 -25q20 -130 27 -207q7 71 18 147.5t27 165.5l98 551h119l-203 -981h-125l-98 606q-7 49 -15 113t-16 143q-9 -69 -18.5 -150t-11.5 -91l-105 -621h-131z" />
<glyph unicode="x" horiz-adv-x="563" d="M-2 0l225 508l-205 473h129l103 -270q3 -8 8 -21q28 -73 37 -114q5 29 14 60t25 73l100 272h131l-207 -471l224 -510h-127l-117 297q-11 26 -21.5 60t-21.5 75q-11 -31 -23 -64.5t-26 -70.5l-111 -297h-137z" />
<glyph unicode="y" horiz-adv-x="627" d="M16 981h127l119 -565q19 -90 31.5 -160t21.5 -135q21 97 43 204.5t25 120.5l125 535h121l-353 -1356h-118l102 363z" />
<glyph unicode="z" horiz-adv-x="573" d="M-4 0l420 881h-353v100h521l-418 -877h352v-104h-522z" />
<glyph unicode="{" horiz-adv-x="1024" d="M176 485v90q10 -1 20.5 -1.5t28.5 -0.5q139 0 196.5 64.5t57.5 222.5v240q0 227 68.5 302t257.5 75h43v-88h-37q-135 0 -182 -51.5t-47 -213.5v-241q0 -175 -43 -248t-152 -105q109 -32 152 -104t43 -248v-241q0 -162 46.5 -212.5t180.5 -50.5h39v-88h-43 q-189 0 -257.5 74.5t-68.5 300.5v240q0 158 -58 222t-200 64q-7 0 -21.5 -1t-23.5 -1z" />
<glyph unicode="|" horiz-adv-x="1024" d="M467 -483v2048h90v-2048h-90z" />
<glyph unicode="}" horiz-adv-x="1024" d="M176 -326h39q134 0 180.5 50.5t46.5 212.5v241q0 174 43.5 247t153.5 105q-110 32 -153.5 105t-43.5 248v241q0 162 -47 213.5t-182 51.5h-37v88h43q189 0 257.5 -75t68.5 -302v-240q0 -158 58 -222.5t200 -64.5q7 0 21.5 1t23.5 1v-90q-9 0 -23.5 1t-21.5 1 q-142 0 -200 -64t-58 -222v-240q0 -226 -68.5 -300.5t-257.5 -74.5h-43v88z" />
<glyph unicode="~" horiz-adv-x="1706" d="M178 481v92q105 74 201 110t186 36q100 0 271 -61q12 -5 19 -7q8 -3 27 -10q168 -61 261 -61q83 0 175 37.5t212 121.5v-92q-106 -74 -202 -110.5t-185 -36.5q-99 0 -266 61q-16 6 -22 8q-12 4 -33 12q-167 60 -257 60q-83 0 -175 -37.5t-212 -122.5z" />
<glyph unicode="&#xa0;" />
<glyph unicode="&#xa1;" horiz-adv-x="512" d="M164 1386q0 38 27 65.5t65 27.5q36 0 64 -28.5t28 -64.5q0 -38 -26.5 -64t-65.5 -26q-40 0 -66 26t-26 64zM193 0v1108h126v-1108h-126z" />
<glyph unicode="&#xa2;" d="M203 551q0 212 58.5 341t168.5 161v186h88v-180q21 0 48 -7.5t61 -21.5v-143q-26 30 -55.5 44.5t-63.5 14.5q-89 0 -136.5 -105.5t-47.5 -303.5q0 -168 49.5 -265.5t132.5 -97.5q32 0 62.5 18t58.5 54v-150q-22 -15 -49 -24t-60 -13v-174h-88v181q-113 32 -170 154.5 t-57 330.5z" />
<glyph unicode="&#xa3;" d="M109 57q30 75 65 107.5t86 32.5q4 0 12.5 -1t14.5 -1q19 54 29 101t10 89q0 35 -6.5 78t-18.5 96h-151v80h116q-58 153 -84 262.5t-26 198.5q0 177 81.5 278t223.5 101q126 0 197.5 -81t74.5 -226l-106 -54v8q0 117 -42.5 177.5t-125.5 60.5q-82 0 -128 -65t-46 -181 q0 -69 24 -172t92 -307h162v-80h-143q8 -46 12 -88t4 -78q0 -52 -14.5 -106t-44.5 -113l10 -6q115 -66 160 -66q30 0 54.5 28.5t37.5 80.5l94 -37q-28 -99 -72.5 -145.5t-111.5 -46.5q-53 0 -148.5 50t-128.5 50q-24 0 -40 -13.5t-35 -54.5z" />
<glyph unicode="&#xa4;" d="M20 586l21 71h102v62q0 43 0.5 63.5t1.5 38.5h-125l21 72h109q21 289 121 437.5t272 148.5q49 0 94 -10.5t86 -30.5v-142q-48 32 -87.5 46t-78.5 14q-123 0 -191 -114.5t-83 -348.5h405l-20 -72h-387q0 -13 -1 -41t-1 -43v-80h331l-20 -71h-307q11 -254 74 -368t192 -114 q46 0 88.5 15.5t81.5 46.5v-135q-43 -24 -91 -36.5t-100 -12.5q-182 0 -275 146t-108 458h-125z" />
<glyph unicode="&#xa5;" horiz-adv-x="793" d="M61 637v72h256l-57 163h-199v72h177l-172 516h133l209 -678l206 678h127l-170 -516h181v-72h-205l-53 -163h258v-72h-283v-637h-129v637h-279z" />
<glyph unicode="&#xa6;" horiz-adv-x="1024" d="M467 -350v758h90v-758h-90zM467 674v758h90v-758h-90z" />
<glyph unicode="&#xa7;" horiz-adv-x="711" d="M25 530q0 135 61.5 225t177.5 126q-81 48 -120.5 119t-39.5 167q0 141 72.5 227.5t190.5 86.5q117 0 186.5 -94.5t69.5 -256.5v-30h-119v18q0 122 -37 187t-105 65q-59 0 -95 -48.5t-36 -129.5q0 -71 24.5 -120t80.5 -91q46 -36 116.5 -75.5t86.5 -53.5q83 -76 115 -147 t32 -170q0 -135 -61.5 -225t-178.5 -126q81 -49 119.5 -118.5t38.5 -165.5q0 -145 -70.5 -230.5t-189.5 -85.5q-117 0 -185.5 94.5t-68.5 255.5v31h117v-18q0 -122 36.5 -187t104.5 -65q61 0 96 48.5t35 133.5q0 79 -35 133t-125 111q-15 10 -48 29q-111 65 -158 120 q-44 52 -66 117t-22 143zM152 535q0 -122 54.5 -193.5t145.5 -71.5q96 0 152.5 70.5t56.5 189.5q0 121 -55.5 192t-149.5 71q-93 0 -148.5 -70t-55.5 -188z" />
<glyph unicode="&#xa8;" horiz-adv-x="1024" d="M301 1257q0 34 24 58t58 24q35 0 58.5 -23.5t23.5 -58.5q0 -31 -24.5 -56t-57.5 -25q-32 0 -57 25t-25 56zM557 1257q0 34 24 58t58 24q35 0 59.5 -23.5t24.5 -58.5q0 -31 -25.5 -56t-58.5 -25q-32 0 -57 25t-25 56z" />
<glyph unicode="&#xa9;" horiz-adv-x="1706" d="M123 721q0 145 56 279t161 241q101 103 232 157t280 54t282.5 -55t237.5 -160q103 -102 157 -235t54 -281q0 -150 -53.5 -280t-157.5 -232q-107 -106 -241.5 -162.5t-278.5 -56.5q-145 0 -277 55.5t-237 161.5q-105 104 -160 236t-55 278zM195 721q0 -130 50 -249.5 t144 -213.5t213.5 -144.5t249.5 -50.5t251.5 51t217.5 146q93 92 141.5 209.5t48.5 251.5q0 133 -49 252.5t-141 212.5q-95 95 -215 144.5t-254 49.5q-133 0 -251.5 -49t-209.5 -141q-95 -97 -145.5 -218t-50.5 -251zM471 725q0 205 107 328t282 123q132 0 222.5 -72 t103.5 -186h-105q-20 81 -79.5 126.5t-147.5 45.5q-126 0 -196 -97.5t-70 -273.5q0 -169 71.5 -267t194.5 -98q91 0 156 52.5t84 140.5h102q-11 -123 -108 -201t-240 -78q-173 0 -275 123.5t-102 333.5z" />
<glyph unicode="&#xaa;" horiz-adv-x="541" d="M55 1135q0 173 44 254t137 81q41 0 73.5 -18.5t55.5 -54.5v63h88v-686h-88v64q-17 -36 -51 -56t-78 -20q-96 0 -138.5 87t-42.5 286zM147 1114q0 -160 25.5 -221.5t87.5 -61.5q59 0 84 62.5t25 220.5q0 159 -25 222t-84 63q-61 0 -87 -62.5t-26 -222.5z" />
<glyph unicode="&#xab;" horiz-adv-x="702" d="M59 489l238 437l86 -52l-207 -385l207 -385l-86 -49zM340 489l235 437l89 -52l-207 -385l207 -385l-89 -49z" />
<glyph unicode="&#xac;" horiz-adv-x="1706" d="M254 774v82h1198v-502h-78v420h-1120z" />
<glyph unicode="&#xad;" horiz-adv-x="551" d="M78 449v110h393v-110h-393z" />
<glyph unicode="&#xae;" horiz-adv-x="1706" d="M123 721q0 145 56 279t161 241q101 103 232 157t280 54t282.5 -55t237.5 -160q103 -102 157 -235t54 -281q0 -150 -53.5 -280t-157.5 -232q-107 -106 -241.5 -162.5t-278.5 -56.5q-145 0 -277 55.5t-237 161.5q-105 104 -160 236t-55 278zM195 721q0 -130 50 -249.5 t144 -213.5t213.5 -144.5t249.5 -50.5t251.5 51t217.5 146q93 92 141.5 209.5t48.5 251.5q0 133 -49 252.5t-141 212.5q-95 95 -215 144.5t-254 49.5q-133 0 -251.5 -49t-209.5 -141q-95 -97 -145.5 -218t-50.5 -251zM569 309v846h305q180 0 264.5 -56.5t84.5 -176.5 q0 -89 -55.5 -149t-147.5 -71l190 -393h-131l-182 377h-213v-377h-115zM684 764h168q145 0 199.5 36t54.5 126q0 78 -61.5 114.5t-192.5 36.5h-168v-313z" />
<glyph unicode="&#xaf;" horiz-adv-x="1024" d="M307 1198v113h410v-113h-410z" />
<glyph unicode="&#xb0;" horiz-adv-x="674" d="M63 1176q0 114 80.5 194t194.5 80q112 0 192 -80.5t80 -193.5q0 -114 -80 -193.5t-194 -79.5q-115 0 -194 79t-79 194zM125 1176q0 -89 62.5 -151t150.5 -62t150.5 62t62.5 151q0 87 -63 150t-150 63q-89 0 -151 -62t-62 -151z" />
<glyph unicode="&#xb1;" horiz-adv-x="1706" d="M254 59v82h1198v-82h-1198zM254 727v80h559v354h80v-354h559v-80h-559v-352h-80v352h-559z" />
<glyph unicode="&#xb2;" horiz-adv-x="526" d="M39 584q206 355 264.5 484.5t58.5 199.5q0 58 -29.5 93.5t-78.5 35.5q-56 0 -84.5 -40t-28.5 -118v-14h-84v12q0 112 51 172.5t144 60.5q86 0 141.5 -55.5t55.5 -144.5q0 -79 -57.5 -209t-219.5 -404h268v-73h-401z" />
<glyph unicode="&#xb3;" horiz-adv-x="526" d="M59 801v18h88v-18q0 -78 26 -116t79 -38q58 0 88.5 48t30.5 139q0 108 -37.5 150t-130.5 42q-5 0 -15.5 -1t-15.5 -1v74h35q84 0 119.5 39t35.5 131q0 61 -26.5 94t-77.5 33q-47 0 -72.5 -33.5t-25.5 -93.5v-8h-86q3 104 50 157t136 53q87 0 136.5 -56t49.5 -157 q0 -79 -28 -128.5t-82 -63.5q62 -21 91.5 -77.5t29.5 -153.5q0 -123 -55.5 -192t-153.5 -69q-90 0 -139.5 59.5t-49.5 168.5z" />
<glyph unicode="&#xb4;" horiz-adv-x="1024" d="M412 1116l168 348h120l-215 -348h-73z" />
<glyph unicode="&#xb5;" horiz-adv-x="1094" d="M-111 -424l316 1487h121l-123 -590q-9 -43 -13 -77t-4 -64q0 -126 60 -192t174 -66q127 0 219.5 109t136.5 313l125 567h121l-166 -786q-2 -9 -5 -24q-20 -92 -20 -112q0 -31 17.5 -47t50.5 -16q9 0 18.5 0.5t20.5 1.5l-18 -96q-3 -1 -8 -2q-49 -11 -68 -11 q-68 0 -100.5 31.5t-32.5 95.5q0 7 0.5 16t3.5 29q-43 -83 -123.5 -127.5t-188.5 -44.5q-97 0 -169.5 45.5t-104.5 126.5l-119 -567h-121z" />
<glyph unicode="&#xb6;" horiz-adv-x="1024" d="M90 1130q0 157 108.5 253t286.5 96h447v-64h-129v-1415h-70v1415h-192v-1415h-70v782q-175 8 -278 102.5t-103 245.5z" />
<glyph unicode="&#xb7;" horiz-adv-x="397" d="M109 731q0 37 26 62.5t64 25.5t64 -26t26 -64q0 -36 -26.5 -63t-63.5 -27t-63.5 27.5t-26.5 64.5z" />
<glyph unicode="&#xb8;" horiz-adv-x="1024" d="M307 -342q62 -18 108 -26.5t81 -8.5q50 0 78 25t28 69q0 51 -28.5 76t-88.5 25q-15 0 -22.5 -0.5t-13.5 -1.5v184h51v-111h16q84 0 130 -44t46 -124q0 -88 -50 -133t-148 -45q-39 0 -84.5 9.5t-102.5 29.5v76z" />
<glyph unicode="&#xb9;" horiz-adv-x="526" d="M104 1386l21 74h190v-876h-86v802h-125z" />
<glyph unicode="&#xba;" horiz-adv-x="520" d="M49 1118q0 178 53.5 267.5t159.5 89.5q103 0 156 -90.5t53 -266.5q0 -175 -53.5 -265.5t-155.5 -90.5q-106 0 -159.5 89t-53.5 267zM143 1118q0 -149 28 -216.5t89 -67.5q60 0 88.5 69t28.5 213q0 145 -29 216t-88 71q-61 0 -89 -67.5t-28 -217.5z" />
<glyph unicode="&#xbb;" horiz-adv-x="702" d="M37 106l209 383l-209 388l88 49l237 -437l-237 -434zM317 877l89 49l235 -437l-235 -434l-84 51l202 383z" />
<glyph unicode="&#xbc;" horiz-adv-x="1241" d="M98 1391l19 67h182v-817h-82v750h-119zM276 -18l586 1497h101l-586 -1497h-101zM791 223v68l247 526h86v-530h68v-64h-68v-223h-77v223h-256zM864 287h183v135q0 80 4 161t12 165q-16 -45 -56 -138l-10 -23z" />
<glyph unicode="&#xbd;" horiz-adv-x="1241" d="M98 1391l19 67h182v-817h-82v750h-119zM276 -18l586 1497h101l-586 -1497h-101zM776 0q193 322 251 446.5t58 192.5q0 54 -28.5 87.5t-75.5 33.5q-53 0 -80 -37.5t-27 -110.5v-14h-79v10q0 106 48 162.5t138 56.5q81 0 133.5 -52t52.5 -134q0 -73 -53 -192.5t-209 -378.5 h254v-70h-383z" />
<glyph unicode="&#xbe;" horiz-adv-x="1241" d="M57 844v18h84v-18q0 -74 24.5 -109t76.5 -35q54 0 83 45t29 129q0 101 -36 141t-123 40q-6 0 -16 -1t-15 -1v69q7 -1 13.5 -1.5t19.5 -0.5q80 0 114.5 36.5t34.5 121.5q0 59 -25.5 90t-74.5 31q-44 0 -69 -31.5t-25 -87.5v-8h-82q3 97 48.5 146.5t131.5 49.5 q83 0 130.5 -52.5t47.5 -145.5q0 -75 -28 -120.5t-81 -57.5q59 -20 88 -74t29 -144q0 -114 -52.5 -178.5t-145.5 -64.5q-87 0 -134 55t-47 158zM276 -18l586 1497h101l-586 -1497h-101zM791 223v68l247 526h86v-530h68v-64h-68v-223h-77v223h-256zM864 287h183v135 q0 80 4 161t12 165q-16 -45 -56 -138l-10 -23z" />
<glyph unicode="&#xbf;" horiz-adv-x="653" d="M96 319q0 230 57 325.5t193 100.5v353h129v-465h-78q-101 0 -137.5 -59t-36.5 -244q0 -144 26 -192t95 -48q57 0 86 41.5t29 122.5v111h123v-95q0 -154 -56.5 -221t-183.5 -67q-130 0 -188 78.5t-58 258.5zM313 1386q0 38 27.5 65.5t65.5 27.5q36 0 64 -28.5t28 -64.5 q0 -38 -27 -64t-65 -26q-40 0 -66.5 26t-26.5 64z" />
<glyph unicode="&#xc0;" horiz-adv-x="750" d="M29 0l290 1460h127l297 -1460h-135l-57 295h-334l-51 -295h-137zM187 1943h120l168 -348h-73zM238 412h288l-118 681q-7 40 -13 95.5t-10 121.5q-5 -63 -11.5 -117t-15.5 -101z" />
<glyph unicode="&#xc1;" horiz-adv-x="750" d="M29 0l290 1460h127l297 -1460h-135l-57 295h-334l-51 -295h-137zM238 412h288l-118 681q-7 40 -13 95.5t-10 121.5q-5 -63 -11.5 -117t-15.5 -101zM275 1595l168 348h120l-215 -348h-73z" />
<glyph unicode="&#xc2;" horiz-adv-x="750" d="M29 0l290 1460h127l297 -1460h-135l-57 295h-334l-51 -295h-137zM154 1595l160 348h120l162 -348h-74l-147 262l-147 -262h-74zM238 412h288l-118 681q-7 40 -13 95.5t-10 121.5q-5 -63 -11.5 -117t-15.5 -101z" />
<glyph unicode="&#xc3;" horiz-adv-x="750" d="M29 0l290 1460h127l297 -1460h-135l-57 295h-334l-51 -295h-137zM144 1640q18 83 57 127.5t92 44.5q19 0 32.5 -2t22.5 -6l73 -27q13 -5 23.5 -7.5t18.5 -2.5q26 0 45 17t33 53h63q-21 -88 -57.5 -130t-89.5 -42q-17 0 -32.5 3t-31.5 9l-69 25q-2 0 -5 1q-24 7 -38 7 q-24 0 -41.5 -17t-30.5 -53h-65zM238 412h288l-118 681q-7 40 -13 95.5t-10 121.5q-5 -63 -11.5 -117t-15.5 -101z" />
<glyph unicode="&#xc4;" horiz-adv-x="750" d="M29 0l290 1460h127l297 -1460h-135l-57 295h-334l-51 -295h-137zM164 1736q0 34 24 58t58 24q35 0 58.5 -23.5t23.5 -58.5q0 -31 -24.5 -56t-57.5 -25q-32 0 -57 25t-25 56zM238 412h288l-118 681q-7 40 -13 95.5t-10 121.5q-5 -63 -11.5 -117t-15.5 -101zM420 1736 q0 34 24 58t58 24q35 0 59.5 -23.5t24.5 -58.5q0 -31 -25.5 -56t-58.5 -25q-32 0 -57 25t-25 56z" />
<glyph unicode="&#xc5;" horiz-adv-x="750" d="M29 0l290 1460h127l297 -1460h-135l-57 295h-334l-51 -295h-137zM164 1749q0 94 64.5 158.5t158.5 64.5q93 0 157 -64.5t64 -158.5t-63.5 -157.5t-157.5 -63.5q-95 0 -159 63.5t-64 157.5zM238 412h288l-118 681q-7 40 -13 95.5t-10 121.5q-5 -63 -11.5 -117t-15.5 -101z M254 1749q0 -55 39 -94t94 -39t94 39t39 94t-39 94t-94 39q-56 0 -94.5 -38.5t-38.5 -94.5z" />
<glyph unicode="&#xc6;" horiz-adv-x="1006" d="M29 0l290 1460h461l25 -123h-334l104 -526h330l25 -119h-332l113 -569h329l23 -123h-455l-57 295h-334l-51 -295h-137zM238 412h288l-118 681q-7 40 -13 95.5t-10 121.5q-5 -63 -11.5 -117t-15.5 -101z" />
<glyph unicode="&#xc7;" horiz-adv-x="674" d="M76 719q0 369 102 559t301 190q50 0 94.5 -10t85.5 -31v-143q-47 31 -86.5 45t-78.5 14q-144 0 -211.5 -147t-67.5 -459q0 -339 62.5 -479.5t207.5 -140.5q30 0 57.5 6t53.5 18q15 7 30 16.5t29 20.5v-139q-42 -24 -90.5 -36.5t-99.5 -12.5q-198 0 -293.5 179.5 t-95.5 549.5zM223 -342q62 -18 108 -26.5t81 -8.5q50 0 78 25t28 69q0 51 -28.5 76t-88.5 25q-15 0 -22.5 -0.5t-13.5 -1.5v184h51v-111h16q84 0 130 -44t46 -124q0 -88 -50 -133t-148 -45q-39 0 -84.5 9.5t-102.5 29.5v76z" />
<glyph unicode="&#xc8;" horiz-adv-x="707" d="M147 0v1460h459v-123h-325v-526h321v-119h-321v-569h335v-123h-469zM185 1943h120l168 -348h-73z" />
<glyph unicode="&#xc9;" horiz-adv-x="707" d="M147 0v1460h459v-123h-325v-526h321v-119h-321v-569h335v-123h-469zM273 1595l168 348h120l-215 -348h-73z" />
<glyph unicode="&#xca;" horiz-adv-x="707" d="M147 0v1460h459v-123h-325v-526h321v-119h-321v-569h335v-123h-469zM152 1595l160 348h120l162 -348h-74l-147 262l-147 -262h-74z" />
<glyph unicode="&#xcb;" horiz-adv-x="707" d="M147 0v1460h459v-123h-325v-526h321v-119h-321v-569h335v-123h-469zM162 1736q0 34 24 58t58 24q35 0 58.5 -23.5t23.5 -58.5q0 -31 -24.5 -56t-57.5 -25q-32 0 -57 25t-25 56zM418 1736q0 34 24 58t58 24q35 0 59.5 -23.5t24.5 -58.5q0 -31 -25.5 -56t-58.5 -25 q-32 0 -57 25t-25 56z" />
<glyph unicode="&#xcc;" horiz-adv-x="426" d="M25 1943h120l168 -348h-73zM147 0v1460h134v-1460h-134z" />
<glyph unicode="&#xcd;" horiz-adv-x="426" d="M113 1595l168 348h120l-215 -348h-73zM147 0v1460h134v-1460h-134z" />
<glyph unicode="&#xce;" horiz-adv-x="426" d="M-8 1595l160 348h120l162 -348h-74l-147 262l-147 -262h-74zM147 0v1460h134v-1460h-134z" />
<glyph unicode="&#xcf;" horiz-adv-x="426" d="M2 1736q0 34 24 58t58 24q35 0 58.5 -23.5t23.5 -58.5q0 -31 -24.5 -56t-57.5 -25q-32 0 -57 25t-25 56zM147 0v1460h134v-1460h-134zM258 1736q0 34 24 58t58 24q35 0 59.5 -23.5t24.5 -58.5q0 -31 -25.5 -56t-58.5 -25q-32 0 -57 25t-25 56z" />
<glyph unicode="&#xd0;" horiz-adv-x="854" d="M18 762v102h148v596h168q248 0 345 -155t97 -580q0 -403 -101 -564t-347 -161h-162v762h-148zM299 123h27q177 0 246 122t69 462q0 380 -66 506t-241 126h-35v-475h170v-102h-170v-639z" />
<glyph unicode="&#xd1;" horiz-adv-x="901" d="M147 0v1460h115l330 -999q7 -21 28 -102.5t52 -204.5q-16 131 -23.5 268t-7.5 283v755h115v-1460h-115l-322 983q-22 70 -44 148.5t-46 177.5q17 -155 25 -292t8 -255v-762h-115zM220 1640q18 83 57 127.5t92 44.5q19 0 32.5 -2t22.5 -6l73 -27q13 -5 23.5 -7.5 t18.5 -2.5q26 0 45 17t33 53h63q-21 -88 -57.5 -130t-89.5 -42q-17 0 -32.5 3t-31.5 9l-69 25q-2 0 -5 1q-24 7 -38 7q-24 0 -41.5 -17t-30.5 -53h-65z" />
<glyph unicode="&#xd2;" horiz-adv-x="877" d="M76 729q0 384 88 567t274 183t274.5 -183t88.5 -567t-88.5 -565.5t-274.5 -181.5t-274 181.5t-88 565.5zM213 731q0 -324 54.5 -475.5t170.5 -151.5q117 0 171.5 149.5t54.5 477.5q0 327 -54.5 476t-171.5 149q-116 0 -170.5 -150.5t-54.5 -474.5zM250 1943h120l168 -348 h-73z" />
<glyph unicode="&#xd3;" horiz-adv-x="877" d="M76 729q0 384 88 567t274 183t274.5 -183t88.5 -567t-88.5 -565.5t-274.5 -181.5t-274 181.5t-88 565.5zM213 731q0 -324 54.5 -475.5t170.5 -151.5q117 0 171.5 149.5t54.5 477.5q0 327 -54.5 476t-171.5 149q-116 0 -170.5 -150.5t-54.5 -474.5zM338 1595l168 348h120 l-215 -348h-73z" />
<glyph unicode="&#xd4;" horiz-adv-x="877" d="M76 729q0 384 88 567t274 183t274.5 -183t88.5 -567t-88.5 -565.5t-274.5 -181.5t-274 181.5t-88 565.5zM213 731q0 -324 54.5 -475.5t170.5 -151.5q117 0 171.5 149.5t54.5 477.5q0 327 -54.5 476t-171.5 149q-116 0 -170.5 -150.5t-54.5 -474.5zM217 1595l160 348h120 l162 -348h-74l-147 262l-147 -262h-74z" />
<glyph unicode="&#xd5;" horiz-adv-x="877" d="M76 729q0 384 88 567t274 183t274.5 -183t88.5 -567t-88.5 -565.5t-274.5 -181.5t-274 181.5t-88 565.5zM207 1640q18 83 57 127.5t92 44.5q19 0 32.5 -2t22.5 -6l73 -27q13 -5 23.5 -7.5t18.5 -2.5q26 0 45 17t33 53h63q-21 -88 -57.5 -130t-89.5 -42q-17 0 -32.5 3 t-31.5 9l-69 25q-2 0 -5 1q-24 7 -38 7q-24 0 -41.5 -17t-30.5 -53h-65zM213 731q0 -324 54.5 -475.5t170.5 -151.5q117 0 171.5 149.5t54.5 477.5q0 327 -54.5 476t-171.5 149q-116 0 -170.5 -150.5t-54.5 -474.5z" />
<glyph unicode="&#xd6;" horiz-adv-x="877" d="M76 729q0 384 88 567t274 183t274.5 -183t88.5 -567t-88.5 -565.5t-274.5 -181.5t-274 181.5t-88 565.5zM213 731q0 -324 54.5 -475.5t170.5 -151.5q117 0 171.5 149.5t54.5 477.5q0 327 -54.5 476t-171.5 149q-116 0 -170.5 -150.5t-54.5 -474.5zM227 1736q0 34 24 58 t58 24q35 0 58.5 -23.5t23.5 -58.5q0 -31 -24.5 -56t-57.5 -25q-32 0 -57 25t-25 56zM483 1736q0 34 24 58t58 24q35 0 59.5 -23.5t24.5 -58.5q0 -31 -25.5 -56t-58.5 -25q-32 0 -57 25t-25 56z" />
<glyph unicode="&#xd7;" horiz-adv-x="1706" d="M309 123l488 487l-488 488l58 57l487 -487l487 487l58 -57l-488 -488l488 -487l-58 -57l-487 487l-487 -487z" />
<glyph unicode="&#xd8;" horiz-adv-x="877" d="M57 -2l93 186q-38 108 -56 239.5t-18 305.5q0 384 88 567t274 183q78 0 139 -33.5t107 -102.5l66 140l67 -25l-88 -188q34 -78 53 -220t19 -321q0 -384 -88.5 -565.5t-274.5 -181.5q-76 0 -138 32.5t-107 96.5l-74 -144zM213 754q0 -87 6 -189.5t19 -218.5l376 848 q-29 82 -72.5 122t-103.5 40q-114 0 -169.5 -148.5t-55.5 -453.5zM270 250q25 -70 68.5 -108t99.5 -38q117 0 171.5 150t54.5 477q0 69 -5.5 157.5t-15.5 192.5z" />
<glyph unicode="&#xd9;" horiz-adv-x="913" d="M145 416v1044h134v-1044q0 -183 39 -249.5t137 -66.5t137 66.5t39 249.5v1044h133v-1044q0 -242 -70.5 -338t-238.5 -96q-169 0 -239.5 96t-70.5 338zM269 1943h120l168 -348h-73z" />
<glyph unicode="&#xda;" horiz-adv-x="913" d="M145 416v1044h134v-1044q0 -183 39 -249.5t137 -66.5t137 66.5t39 249.5v1044h133v-1044q0 -242 -70.5 -338t-238.5 -96q-169 0 -239.5 96t-70.5 338zM357 1595l168 348h120l-215 -348h-73z" />
<glyph unicode="&#xdb;" horiz-adv-x="913" d="M145 416v1044h134v-1044q0 -183 39 -249.5t137 -66.5t137 66.5t39 249.5v1044h133v-1044q0 -242 -70.5 -338t-238.5 -96q-169 0 -239.5 96t-70.5 338zM236 1595l160 348h120l162 -348h-74l-147 262l-147 -262h-74z" />
<glyph unicode="&#xdc;" horiz-adv-x="913" d="M145 416v1044h134v-1044q0 -183 39 -249.5t137 -66.5t137 66.5t39 249.5v1044h133v-1044q0 -242 -70.5 -338t-238.5 -96q-169 0 -239.5 96t-70.5 338zM246 1736q0 34 24 58t58 24q35 0 58.5 -23.5t23.5 -58.5q0 -31 -24.5 -56t-57.5 -25q-32 0 -57 25t-25 56zM502 1736 q0 34 24 58t58 24q35 0 59.5 -23.5t24.5 -58.5q0 -31 -25.5 -56t-58.5 -25q-32 0 -57 25t-25 56z" />
<glyph unicode="&#xdd;" horiz-adv-x="674" d="M-4 1460h139l205 -672l201 672h135l-273 -827v-633h-133v637zM238 1595l168 348h120l-215 -348h-73z" />
<glyph unicode="&#xde;" horiz-adv-x="772" d="M147 0v1460h134v-319h53q190 0 276 -93.5t86 -299.5q0 -190 -83 -278.5t-261 -88.5h-71v-381h-134zM281 500h73q112 0 160.5 61.5t48.5 204.5q0 132 -53 194t-166 62h-63v-522z" />
<glyph unicode="&#xdf;" horiz-adv-x="750" d="M117 0v1145q0 232 58.5 328t195.5 96q130 0 193 -93t63 -284q0 -127 -35.5 -205t-108.5 -110q93 -35 138 -139.5t45 -284.5q0 -236 -65 -349.5t-200 -113.5q-21 0 -32.5 1t-22.5 3v108q11 -2 23 -3t34 -1q72 0 104 88.5t32 286.5q0 168 -45.5 250.5t-141.5 88.5v120 q82 4 116 67.5t34 219.5q0 120 -35 180.5t-105 60.5q-63 0 -93.5 -69.5t-30.5 -214.5v-1176h-121z" />
<glyph unicode="&#xe0;" horiz-adv-x="721" d="M74 514q0 249 57.5 364t181.5 115q56 0 99 -26t73 -78v92h119v-981h-119v90q-22 -52 -67.5 -80t-104.5 -28q-126 0 -182.5 123.5t-56.5 408.5zM172 1464h120l168 -348h-73zM197 485q0 -230 33.5 -316.5t115.5 -86.5q79 0 112.5 89.5t33.5 313.5q0 225 -33.5 315.5 t-112.5 90.5q-82 0 -115.5 -88t-33.5 -318z" />
<glyph unicode="&#xe1;" horiz-adv-x="721" d="M74 514q0 249 57.5 364t181.5 115q56 0 99 -26t73 -78v92h119v-981h-119v90q-22 -52 -67.5 -80t-104.5 -28q-126 0 -182.5 123.5t-56.5 408.5zM197 485q0 -230 33.5 -316.5t115.5 -86.5q79 0 112.5 89.5t33.5 313.5q0 225 -33.5 315.5t-112.5 90.5q-82 0 -115.5 -88 t-33.5 -318zM260 1116l168 348h120l-215 -348h-73z" />
<glyph unicode="&#xe2;" horiz-adv-x="721" d="M74 514q0 249 57.5 364t181.5 115q56 0 99 -26t73 -78v92h119v-981h-119v90q-22 -52 -67.5 -80t-104.5 -28q-126 0 -182.5 123.5t-56.5 408.5zM139 1116l160 348h120l162 -348h-74l-147 262l-147 -262h-74zM197 485q0 -230 33.5 -316.5t115.5 -86.5q79 0 112.5 89.5 t33.5 313.5q0 225 -33.5 315.5t-112.5 90.5q-82 0 -115.5 -88t-33.5 -318z" />
<glyph unicode="&#xe3;" horiz-adv-x="721" d="M74 514q0 249 57.5 364t181.5 115q56 0 99 -26t73 -78v92h119v-981h-119v90q-22 -52 -67.5 -80t-104.5 -28q-126 0 -182.5 123.5t-56.5 408.5zM129 1161q18 83 57 127.5t92 44.5q19 0 32.5 -2t22.5 -6l73 -27q13 -5 23.5 -7.5t18.5 -2.5q26 0 45 17t33 53h63 q-21 -88 -57.5 -130t-89.5 -42q-17 0 -32.5 3t-31.5 9l-69 25q-2 0 -5 1q-24 7 -38 7q-24 0 -41.5 -17t-30.5 -53h-65zM197 485q0 -230 33.5 -316.5t115.5 -86.5q79 0 112.5 89.5t33.5 313.5q0 225 -33.5 315.5t-112.5 90.5q-82 0 -115.5 -88t-33.5 -318z" />
<glyph unicode="&#xe4;" horiz-adv-x="721" d="M74 514q0 249 57.5 364t181.5 115q56 0 99 -26t73 -78v92h119v-981h-119v90q-22 -52 -67.5 -80t-104.5 -28q-126 0 -182.5 123.5t-56.5 408.5zM149 1257q0 34 24 58t58 24q35 0 58.5 -23.5t23.5 -58.5q0 -31 -24.5 -56t-57.5 -25q-32 0 -57 25t-25 56zM197 485 q0 -230 33.5 -316.5t115.5 -86.5q79 0 112.5 89.5t33.5 313.5q0 225 -33.5 315.5t-112.5 90.5q-82 0 -115.5 -88t-33.5 -318zM405 1257q0 34 24 58t58 24q35 0 59.5 -23.5t24.5 -58.5q0 -31 -25.5 -56t-58.5 -25q-32 0 -57 25t-25 56z" />
<glyph unicode="&#xe5;" horiz-adv-x="721" d="M74 514q0 249 57.5 364t181.5 115q56 0 99 -26t73 -78v92h119v-981h-119v90q-22 -52 -67.5 -80t-104.5 -28q-126 0 -182.5 123.5t-56.5 408.5zM135 1303q0 93 64.5 157t158.5 64t158 -64t64 -157q0 -95 -64 -159.5t-158 -64.5t-158.5 64.5t-64.5 159.5zM197 485 q0 -230 33.5 -316.5t115.5 -86.5q79 0 112.5 89.5t33.5 313.5q0 225 -33.5 315.5t-112.5 90.5q-82 0 -115.5 -88t-33.5 -318zM225 1303q0 -56 39 -96t94 -40t93 40t38 96q0 55 -38 94t-93 39t-94 -38.5t-39 -94.5z" />
<glyph unicode="&#xe6;" horiz-adv-x="1083" d="M63 317q0 128 69 206.5t179 78.5q53 0 98 -16.5t83 -48.5v165q0 100 -36.5 144.5t-117.5 44.5q-47 0 -95.5 -18.5t-97.5 -55.5v121q61 31 113.5 46t99.5 15q79 0 129.5 -36.5t73.5 -110.5q32 70 87 108.5t124 38.5q132 0 198 -126.5t66 -376.5v-35h-428v-33 q0 -163 41.5 -252.5t116.5 -89.5q61 0 99.5 64.5t41.5 174.5l117 1q-8 -162 -77 -253t-181 -91q-76 0 -131.5 38t-87.5 113q-35 -72 -95 -111.5t-135 -39.5q-120 0 -187 88t-67 247zM170 307q0 -108 43.5 -164.5t126.5 -56.5q76 0 120 58t44 159q0 97 -44 151t-122 54 q-76 0 -122 -55.5t-46 -145.5zM608 561h313q-1 156 -39.5 242t-107.5 86q-73 0 -116.5 -85t-49.5 -243z" />
<glyph unicode="&#xe7;" horiz-adv-x="541" d="M84 473q0 259 76 389.5t227 130.5q33 0 64 -9.5t57 -27.5v-141q-28 34 -57 50t-64 16q-94 0 -137 -99t-43 -315q0 -181 44 -273t132 -92q38 0 69 18.5t54 55.5v-143q-34 -23 -69 -34t-75 -11q-129 0 -203.5 128.5t-74.5 356.5zM123 -342q62 -18 108 -26.5t81 -8.5 q50 0 78 25t28 69q0 51 -28.5 76t-88.5 25q-15 0 -22.5 -0.5t-13.5 -1.5v184h51v-111h16q84 0 130 -44t46 -124q0 -88 -50 -133t-148 -45q-39 0 -84.5 9.5t-102.5 29.5v76z" />
<glyph unicode="&#xe8;" horiz-adv-x="659" d="M66 483q0 246 74 381t206 135t199 -127.5t67 -377.5v-33h-428v-33q0 -163 42 -252.5t116 -89.5q61 0 99.5 64.5t41.5 174.5h117q-7 -159 -77 -251t-183 -92q-137 0 -205.5 125.5t-68.5 375.5zM154 1464h120l168 -348h-73zM184 561h313q-1 156 -39.5 242t-107.5 86 q-73 0 -116.5 -85t-49.5 -243z" />
<glyph unicode="&#xe9;" horiz-adv-x="659" d="M66 483q0 246 74 381t206 135t199 -127.5t67 -377.5v-33h-428v-33q0 -163 42 -252.5t116 -89.5q61 0 99.5 64.5t41.5 174.5h117q-7 -159 -77 -251t-183 -92q-137 0 -205.5 125.5t-68.5 375.5zM184 561h313q-1 156 -39.5 242t-107.5 86q-73 0 -116.5 -85t-49.5 -243z M242 1116l168 348h120l-215 -348h-73z" />
<glyph unicode="&#xea;" horiz-adv-x="659" d="M66 483q0 246 74 381t206 135t199 -127.5t67 -377.5v-33h-428v-33q0 -163 42 -252.5t116 -89.5q61 0 99.5 64.5t41.5 174.5h117q-7 -159 -77 -251t-183 -92q-137 0 -205.5 125.5t-68.5 375.5zM121 1116l160 348h120l162 -348h-74l-147 262l-147 -262h-74zM184 561h313 q-1 156 -39.5 242t-107.5 86q-73 0 -116.5 -85t-49.5 -243z" />
<glyph unicode="&#xeb;" horiz-adv-x="659" d="M66 483q0 246 74 381t206 135t199 -127.5t67 -377.5v-33h-428v-33q0 -163 42 -252.5t116 -89.5q61 0 99.5 64.5t41.5 174.5h117q-7 -159 -77 -251t-183 -92q-137 0 -205.5 125.5t-68.5 375.5zM131 1257q0 34 24 58t58 24q35 0 58.5 -23.5t23.5 -58.5q0 -31 -24.5 -56 t-57.5 -25q-32 0 -57 25t-25 56zM184 561h313q-1 156 -39.5 242t-107.5 86q-73 0 -116.5 -85t-49.5 -243zM387 1257q0 34 24 58t58 24q35 0 59.5 -23.5t24.5 -58.5q0 -31 -25.5 -56t-58.5 -25q-32 0 -57 25t-25 56z" />
<glyph unicode="&#xec;" horiz-adv-x="356" d="M-10 1464h120l168 -348h-73zM115 0v981h123v-981h-123z" />
<glyph unicode="&#xed;" horiz-adv-x="356" d="M78 1116l168 348h120l-215 -348h-73zM115 0v981h123v-981h-123z" />
<glyph unicode="&#xee;" horiz-adv-x="356" d="M-43 1116l160 348h120l162 -348h-74l-147 262l-147 -262h-74zM115 0v981h123v-981h-123z" />
<glyph unicode="&#xef;" horiz-adv-x="356" d="M-33 1257q0 34 24 58t58 24q35 0 58.5 -23.5t23.5 -58.5q0 -31 -24.5 -56t-57.5 -25q-32 0 -57 25t-25 56zM115 0v981h123v-981h-123zM223 1257q0 34 24 58t58 24q35 0 59.5 -23.5t24.5 -58.5q0 -31 -25.5 -56t-58.5 -25q-32 0 -57 25t-25 56z" />
<glyph unicode="&#xf0;" horiz-adv-x="692" d="M66 492q0 253 70.5 381t211.5 128q26 0 46 -7t36 -21q-23 70 -56.5 144t-76.5 153l-197 -94l-34 77l190 93q-27 52 -57 103t-64 101h127q19 -34 41 -72t49 -85l158 73l37 -73l-154 -76q117 -221 175.5 -427.5t58.5 -397.5q0 -252 -70.5 -381t-208.5 -129 q-141 0 -211.5 128t-70.5 382zM190 492q0 -214 37.5 -311t118.5 -97q79 0 117.5 99.5t38.5 305.5q0 207 -38.5 307.5t-117.5 100.5q-81 0 -118.5 -96t-37.5 -309z" />
<glyph unicode="&#xf1;" horiz-adv-x="729" d="M117 0v981h121v-90q32 51 80 76.5t108 25.5q104 0 151.5 -73.5t47.5 -239.5v-680h-121v698q0 115 -27 158t-94 43q-71 0 -108 -62.5t-37 -183.5v-653h-121zM144 1161q18 83 57 127.5t92 44.5q19 0 32.5 -2t22.5 -6l73 -27q13 -5 23.5 -7.5t18.5 -2.5q26 0 45 17t33 53h63 q-21 -88 -57.5 -130t-89.5 -42q-17 0 -32.5 3t-31.5 9l-69 25q-2 0 -5 1q-24 7 -38 7q-24 0 -41.5 -17t-30.5 -53h-65z" />
<glyph unicode="&#xf2;" horiz-adv-x="692" d="M66 492q0 253 70.5 381t211.5 128q137 0 208 -129.5t71 -379.5q0 -252 -70.5 -381t-208.5 -129q-141 0 -211.5 128t-70.5 382zM158 1464h120l168 -348h-73zM190 492q0 -214 37.5 -311t118.5 -97q79 0 117.5 99.5t38.5 305.5q0 207 -38.5 307.5t-117.5 100.5 q-81 0 -118.5 -96t-37.5 -309z" />
<glyph unicode="&#xf3;" horiz-adv-x="692" d="M66 492q0 253 70.5 381t211.5 128q137 0 208 -129.5t71 -379.5q0 -252 -70.5 -381t-208.5 -129q-141 0 -211.5 128t-70.5 382zM190 492q0 -214 37.5 -311t118.5 -97q79 0 117.5 99.5t38.5 305.5q0 207 -38.5 307.5t-117.5 100.5q-81 0 -118.5 -96t-37.5 -309zM246 1116 l168 348h120l-215 -348h-73z" />
<glyph unicode="&#xf4;" horiz-adv-x="692" d="M66 492q0 253 70.5 381t211.5 128q137 0 208 -129.5t71 -379.5q0 -252 -70.5 -381t-208.5 -129q-141 0 -211.5 128t-70.5 382zM125 1116l160 348h120l162 -348h-74l-147 262l-147 -262h-74zM190 492q0 -214 37.5 -311t118.5 -97q79 0 117.5 99.5t38.5 305.5 q0 207 -38.5 307.5t-117.5 100.5q-81 0 -118.5 -96t-37.5 -309z" />
<glyph unicode="&#xf5;" horiz-adv-x="692" d="M66 492q0 253 70.5 381t211.5 128q137 0 208 -129.5t71 -379.5q0 -252 -70.5 -381t-208.5 -129q-141 0 -211.5 128t-70.5 382zM115 1161q18 83 57 127.5t92 44.5q19 0 32.5 -2t22.5 -6l73 -27q13 -5 23.5 -7.5t18.5 -2.5q26 0 45 17t33 53h63q-21 -88 -57.5 -130 t-89.5 -42q-17 0 -32.5 3t-31.5 9l-69 25q-2 0 -5 1q-24 7 -38 7q-24 0 -41.5 -17t-30.5 -53h-65zM190 492q0 -214 37.5 -311t118.5 -97q79 0 117.5 99.5t38.5 305.5q0 207 -38.5 307.5t-117.5 100.5q-81 0 -118.5 -96t-37.5 -309z" />
<glyph unicode="&#xf6;" horiz-adv-x="692" d="M66 492q0 253 70.5 381t211.5 128q137 0 208 -129.5t71 -379.5q0 -252 -70.5 -381t-208.5 -129q-141 0 -211.5 128t-70.5 382zM135 1257q0 34 24 58t58 24q35 0 58.5 -23.5t23.5 -58.5q0 -31 -24.5 -56t-57.5 -25q-32 0 -57 25t-25 56zM190 492q0 -214 37.5 -311 t118.5 -97q79 0 117.5 99.5t38.5 305.5q0 207 -38.5 307.5t-117.5 100.5q-81 0 -118.5 -96t-37.5 -309zM391 1257q0 34 24 58t58 24q35 0 59.5 -23.5t24.5 -58.5q0 -31 -25.5 -56t-58.5 -25q-32 0 -57 25t-25 56z" />
<glyph unicode="&#xf7;" horiz-adv-x="1706" d="M254 569v82h1198v-82h-1198zM756 264q0 41 29 71t69 30q41 0 69.5 -29.5t28.5 -71.5q0 -40 -28.5 -69t-69.5 -29t-69.5 28.5t-28.5 69.5zM756 956q0 41 28.5 70t69.5 29t69.5 -28.5t28.5 -70.5q0 -40 -28.5 -70t-69.5 -30t-69.5 29.5t-28.5 70.5z" />
<glyph unicode="&#xf8;" horiz-adv-x="692" d="M57 -14l70 133q-30 67 -45.5 161t-15.5 212q0 253 70.5 381t211.5 128q51 0 94 -19.5t78 -59.5l51 100l58 -27l-66 -133q32 -61 48 -154.5t16 -215.5q0 -252 -70.5 -381t-208.5 -129q-56 0 -99.5 19.5t-78.5 59.5l-57 -108zM190 492q0 -82 3 -136t10 -96l252 559 q-17 37 -46 57.5t-63 20.5q-81 0 -118.5 -96t-37.5 -309zM233 162q20 -38 49 -58t64 -20q79 0 117.5 99.5t38.5 305.5q0 71 -4 128t-13 106z" />
<glyph unicode="&#xf9;" horiz-adv-x="727" d="M106 317v664h121v-643q0 -136 31.5 -191t106.5 -55q73 0 104 54t31 192v643h121v-664q0 -175 -61.5 -255t-194.5 -80q-134 0 -196.5 80.5t-62.5 254.5zM177 1464h120l168 -348h-73z" />
<glyph unicode="&#xfa;" horiz-adv-x="727" d="M106 317v664h121v-643q0 -136 31.5 -191t106.5 -55q73 0 104 54t31 192v643h121v-664q0 -175 -61.5 -255t-194.5 -80q-134 0 -196.5 80.5t-62.5 254.5zM265 1116l168 348h120l-215 -348h-73z" />
<glyph unicode="&#xfb;" horiz-adv-x="727" d="M106 317v664h121v-643q0 -136 31.5 -191t106.5 -55q73 0 104 54t31 192v643h121v-664q0 -175 -61.5 -255t-194.5 -80q-134 0 -196.5 80.5t-62.5 254.5zM144 1116l160 348h120l162 -348h-74l-147 262l-147 -262h-74z" />
<glyph unicode="&#xfc;" horiz-adv-x="727" d="M106 317v664h121v-643q0 -136 31.5 -191t106.5 -55q73 0 104 54t31 192v643h121v-664q0 -175 -61.5 -255t-194.5 -80q-134 0 -196.5 80.5t-62.5 254.5zM154 1257q0 34 24 58t58 24q35 0 58.5 -23.5t23.5 -58.5q0 -31 -24.5 -56t-57.5 -25q-32 0 -57 25t-25 56zM410 1257 q0 34 24 58t58 24q35 0 59.5 -23.5t24.5 -58.5q0 -31 -25.5 -56t-58.5 -25q-32 0 -57 25t-25 56z" />
<glyph unicode="&#xfd;" horiz-adv-x="627" d="M16 981h127l119 -565q19 -90 31.5 -160t21.5 -135q21 97 43 204.5t25 120.5l125 535h121l-353 -1356h-118l102 363zM213 1116l168 348h120l-215 -348h-73z" />
<glyph unicode="&#xfe;" horiz-adv-x="721" d="M121 -393v1943h121v-651q33 48 75 71t95 23q126 0 182.5 -117.5t56.5 -386.5q0 -262 -58.5 -384.5t-182.5 -122.5q-50 0 -92.5 21.5t-75.5 64.5v-461h-121zM233 485q0 -224 33.5 -313.5t112.5 -89.5q81 0 114 86t33 317q0 233 -33 319.5t-114 86.5q-79 0 -112.5 -90.5 t-33.5 -315.5z" />
<glyph unicode="&#xff;" horiz-adv-x="627" d="M16 981h127l119 -565q19 -90 31.5 -160t21.5 -135q21 97 43 204.5t25 120.5l125 535h121l-353 -1356h-118l102 363zM102 1257q0 34 24 58t58 24q35 0 58.5 -23.5t23.5 -58.5q0 -31 -24.5 -56t-57.5 -25q-32 0 -57 25t-25 56zM358 1257q0 34 24 58t58 24q35 0 59.5 -23.5 t24.5 -58.5q0 -31 -25.5 -56t-58.5 -25q-32 0 -57 25t-25 56z" />
<glyph unicode="&#x152;" horiz-adv-x="1223" d="M76 729q0 384 88 567t274 183q75 0 133 -39.5t93 -114.5v135h460v-123h-327v-526h321v-119h-321v-569h336v-123h-469v141q-34 -76 -93 -117.5t-133 -41.5q-186 0 -274 181.5t-88 565.5zM213 731q0 -324 54.5 -475.5t170.5 -151.5q117 0 171.5 149.5t54.5 477.5 q0 327 -54.5 476t-171.5 149q-116 0 -170.5 -150.5t-54.5 -474.5z" />
<glyph unicode="&#x153;" horiz-adv-x="1096" d="M66 492q0 253 70.5 381t211.5 128q74 0 129 -38.5t90 -116.5q37 75 92.5 115t122.5 40q132 0 199.5 -128.5t67.5 -378.5v-33h-428v-33q0 -163 41.5 -252.5t115.5 -89.5q61 0 100 65t42 175l116 -1q-7 -159 -77 -251t-183 -92q-74 0 -129 37.5t-84 107.5q-30 -69 -87 -107 t-128 -38q-141 0 -211.5 128t-70.5 382zM190 492q0 -214 37.5 -310t118.5 -96q79 0 117.5 99t38.5 304q0 207 -38.5 306.5t-117.5 99.5q-82 0 -119 -95.5t-37 -307.5zM621 561l313 1q-2 157 -41 245t-107 88q-72 0 -115.5 -87.5t-49.5 -246.5z" />
<glyph unicode="&#x178;" horiz-adv-x="674" d="M-4 1460h139l205 -672l201 672h135l-273 -827v-633h-133v637zM127 1736q0 34 24 58t58 24q35 0 58.5 -23.5t23.5 -58.5q0 -31 -24.5 -56t-57.5 -25q-32 0 -57 25t-25 56zM383 1736q0 34 24 58t58 24q35 0 59.5 -23.5t24.5 -58.5q0 -31 -25.5 -56t-58.5 -25q-32 0 -57 25 t-25 56z" />
<glyph unicode="&#x2c6;" horiz-adv-x="1024" d="M291 1116l160 348h120l162 -348h-74l-147 262l-147 -262h-74z" />
<glyph unicode="&#x2dc;" horiz-adv-x="1024" d="M281 1161q18 83 57 127.5t92 44.5q19 0 32.5 -2t22.5 -6l73 -27q13 -5 23.5 -7.5t18.5 -2.5q26 0 45 17t33 53h63q-21 -88 -57.5 -130t-89.5 -42q-17 0 -32.5 3t-31.5 9l-69 25q-2 0 -5 1q-24 7 -38 7q-24 0 -41.5 -17t-30.5 -53h-65z" />
<glyph unicode="&#x2000;" horiz-adv-x="986" />
<glyph unicode="&#x2001;" horiz-adv-x="1972" />
<glyph unicode="&#x2002;" horiz-adv-x="986" />
<glyph unicode="&#x2003;" horiz-adv-x="1972" />
<glyph unicode="&#x2004;" horiz-adv-x="657" />
<glyph unicode="&#x2005;" horiz-adv-x="493" />
<glyph unicode="&#x2006;" horiz-adv-x="328" />
<glyph unicode="&#x2007;" horiz-adv-x="328" />
<glyph unicode="&#x2008;" horiz-adv-x="246" />
<glyph unicode="&#x2009;" horiz-adv-x="394" />
<glyph unicode="&#x200a;" horiz-adv-x="109" />
<glyph unicode="&#x2010;" horiz-adv-x="551" d="M78 449v110h393v-110h-393z" />
<glyph unicode="&#x2011;" horiz-adv-x="551" d="M78 449v110h393v-110h-393z" />
<glyph unicode="&#x2012;" horiz-adv-x="551" d="M78 449v110h393v-110h-393z" />
<glyph unicode="&#x2013;" horiz-adv-x="1024" d="M0 463v82h1024v-82h-1024z" />
<glyph unicode="&#x2014;" horiz-adv-x="2048" d="M0 463v82h2048v-82h-2048z" />
<glyph unicode="&#x2018;" horiz-adv-x="397" d="M47 1057l225 422l88 -47l-184 -439z" />
<glyph unicode="&#x2019;" horiz-adv-x="397" d="M47 1040l184 439l129 -64l-225 -422z" />
<glyph unicode="&#x201a;" horiz-adv-x="397" d="M-12 -266l184 438l129 -63l-225 -422z" />
<glyph unicode="&#x201c;" horiz-adv-x="692" d="M47 1057l225 422l88 -47l-184 -439zM340 1057l225 422l88 -47l-184 -439z" />
<glyph unicode="&#x201d;" horiz-adv-x="692" d="M47 1040l184 439l129 -64l-225 -422zM340 1040l184 439l129 -64l-225 -422z" />
<glyph unicode="&#x201e;" horiz-adv-x="692" d="M-12 -266l184 438l129 -63l-225 -422zM281 -266l186 438l129 -63l-225 -422z" />
<glyph unicode="&#x2022;" horiz-adv-x="1208" d="M307 762q0 123 87 209t210 86q122 0 208.5 -86.5t86.5 -208.5t-87.5 -209.5t-209.5 -87.5q-123 0 -209 87t-86 210z" />
<glyph unicode="&#x2026;" horiz-adv-x="2048" d="M249 74q0 38 27 64t66 26t65.5 -26t26.5 -64t-27.5 -65t-64.5 -27t-65 28t-28 64zM931 74q0 38 27 64t66 26t65.5 -26t26.5 -64t-27.5 -65t-64.5 -27t-65 28t-28 64zM1615 74q0 38 27 64t66 26t65.5 -26t26.5 -64t-27.5 -65t-64.5 -27t-65 28t-28 64z" />
<glyph unicode="&#x202f;" horiz-adv-x="394" />
<glyph unicode="&#x2039;" horiz-adv-x="422" d="M59 492l238 434l86 -52l-207 -382l207 -388l-86 -49z" />
<glyph unicode="&#x203a;" horiz-adv-x="422" d="M39 106l207 383l-207 388l86 49l237 -437l-237 -434z" />
<glyph unicode="&#x205f;" horiz-adv-x="493" />
<glyph unicode="&#x20ac;" d="M20 586l21 71h102v62q0 43 0.5 63.5t1.5 38.5h-125l21 72h109q21 289 121 437.5t272 148.5q49 0 94 -10.5t86 -30.5v-142q-48 32 -87.5 46t-78.5 14q-123 0 -191 -114.5t-83 -348.5h405l-20 -72h-387q0 -13 -1 -41t-1 -43v-80h331l-20 -71h-307q11 -254 74 -368t192 -114 q46 0 88.5 15.5t81.5 46.5v-135q-43 -24 -91 -36.5t-100 -12.5q-182 0 -275 146t-108 458h-125z" />
<glyph unicode="&#x2122;" horiz-adv-x="1706" d="M274 1403v51h420v-51h-174v-479h-67v479h-179zM825 924v530h101l174 -440l162 440h102v-530h-59v479l-181 -479h-49l-190 479v-479h-60z" />
<glyph unicode="&#x25fc;" horiz-adv-x="980" d="M0 0v980h980v-980h-980z" />
<glyph unicode="&#xfb01;" horiz-adv-x="741" d="M18 881v100h113v309q0 145 43 211t137 66q28 0 55.5 -4t55.5 -13v-139q-24 22 -46 32.5t-44 10.5q-45 0 -62.5 -32t-17.5 -144v-297h170v-100h-170v-881h-121v881h-113zM471 1282q0 37 27 62.5t65 25.5q39 0 64.5 -26t25.5 -64q0 -37 -26.5 -63.5t-63.5 -26.5t-64.5 27.5 t-27.5 64.5zM502 0v981h121v-981h-121z" />
<glyph unicode="&#xfb02;" horiz-adv-x="741" d="M18 881v100h113v309q0 145 43 211t137 66q28 0 55.5 -4t55.5 -13v-139q-24 22 -46 32.5t-44 10.5q-45 0 -62.5 -32t-17.5 -144v-297h170v-100h-170v-881h-121v881h-113zM502 0v1550h121v-1550h-121z" />
</font>
</defs>
</svg>
